<?xml version="1.0" encoding="UTF-8" standalone="no"?><!DOCTYPE svg PUBLIC "-//W3C//DTD SVG 1.1//EN" "http://www.w3.org/Graphics/SVG/1.1/DTD/svg11.dtd"><svg width="4000px" height="2500px" version="1.1" xmlns="http://www.w3.org/2000/svg" xmlns:xlink="http://www.w3.org/1999/xlink" xml:space="preserve" xmlns:serif="http://www.serif.com/" style="fill-rule:evenodd;clip-rule:evenodd;stroke-linejoin:round;stroke-miterlimit:2;"><g transform="matrix(1.54209,0,0,1.54209,-87.5508,-902.69)"><g><g transform="matrix(0.422204,0,0,0.422204,-278.46,277.349)"><path d="M3783.33,1197.91C3501.81,1381.86 3180.5,1681.54 2895.6,1860.59C2326.48,2218.26 1809.24,2378.31 1572.95,3085.49C1472.26,3386.84 1542.19,3648.07 1737.78,3890.49C1874.16,4059.54 2022.27,4213.46 2214.24,4320.85C2907.76,4708.83 4205.73,4438.78 4843.13,4049.18C5081.94,3903.21 5310.27,3738.97 5495.85,3527.84C5928.48,3035.65 6351.49,2230.43 6256.93,1555.96C6241,1442.29 6247.18,1336.1 6185.25,1233.67C6019.36,959.289 5732.5,855.74 5427.2,815.12C5030.59,762.35 4392.06,800.172 3783.33,1197.91Z" style="fill:none;"/><clipPath id="_clip1"><path d="M3783.33,1197.91C3501.81,1381.86 3180.5,1681.54 2895.6,1860.59C2326.48,2218.26 1809.24,2378.31 1572.95,3085.49C1472.26,3386.84 1542.19,3648.07 1737.78,3890.49C1874.16,4059.54 2022.27,4213.46 2214.24,4320.85C2907.76,4708.83 4205.73,4438.78 4843.13,4049.18C5081.94,3903.21 5310.27,3738.97 5495.85,3527.84C5928.48,3035.65 6351.49,2230.43 6256.93,1555.96C6241,1442.29 6247.18,1336.1 6185.25,1233.67C6019.36,959.289 5732.5,855.74 5427.2,815.12C5030.59,762.35 4392.06,800.172 3783.33,1197.91Z"/></clipPath><g clip-path="url(#_clip1)"><g transform="matrix(-1.76317,0,0,1.76317,7625.38,-418.466)"><g transform="matrix(1.09319,0,0,1.67916,-283.002,-1300.45)"><rect x="608.725" y="1106.49" width="2854.06" height="1097.16" style="fill:rgb(227,230,255);"/></g><g transform="matrix(-0.56716,0,0,0.56716,4411.1,238.194)"><path d="M1804.48,3799.51L5190.8,4036.39L4200.24,4573.31L2632.36,4547.7L1875.82,4066.68L1804.48,3799.51Z" style="fill:rgb(114,124,245);"/></g><g transform="matrix(-1.34333,0,0,1.34333,3950.74,-135.234)"><path d="M574.335,2067.81L879.673,2013.03L1473.24,2014.4L1550.02,2025.13L1334.01,2080.95L1053.93,2048.75L1213.35,2180.72L615.217,2173.58L574.335,2067.81Z" style="fill:url(#_Linear2);"/></g><g transform="matrix(-0.860323,-0.136676,-0.136676,0.860323,4122.47,971.741)"><path d="M2135.95,1850.54C2126.6,1874.08 2070.16,2083.3 2082.27,2097.28C2088.75,2104.76 2179.01,2113.08 2190.46,2114C2219.9,2116.37 2249.49,2122.74 2278.86,2123.94C2309.63,2125.2 2293.12,2100.73 2293.11,2072.74C2293.1,2026.86 2298.84,1978.31 2278.52,1935.66C2265.71,1908.77 2247.07,1883.82 2237.05,1855.87" style="fill:rgb(22,26,238);"/></g><g transform="matrix(1.48797,0,0,1.43645,-737.614,-1166.12)"><rect x="717.561" y="1246.67" width="765.653" height="833.481" style="fill:rgb(241,242,255);"/></g><g transform="matrix(1.19131,0,0,0.445112,680.358,528.099)"><rect x="717.561" y="1246.67" width="765.653" height="833.481" style="fill:rgb(180,188,255);"/></g><g transform="matrix(0.537429,0,0,0.671559,2139.99,244.531)"><rect x="717.561" y="1246.67" width="765.653" height="833.481" style="fill:rgb(180,188,255);"/></g><g><g transform="matrix(1.09319,0,0,1.09319,-283.002,-252.525)"><rect x="1671.88" y="1214.15" width="839.788" height="317.648" style="fill:rgb(246,246,246);"/></g><g transform="matrix(1.01841,0,0,0.938679,-126.321,-39.538)"><rect x="1671.88" y="1214.15" width="839.788" height="317.648" style="fill:rgb(159,159,233);"/></g><g transform="matrix(1.09319,0,0,1.09319,-283.002,-252.525)"><path d="M2220.62,1237.38C2200.66,1252.17 2181.46,1264.36 2176.3,1267.45C2118.24,1302.29 2055.08,1340.44 1987.6,1353.94C1932.08,1365.05 1873.62,1372.18 1822.49,1397.75C1803.01,1407.49 1781.67,1424.82 1770.82,1443.8C1764,1455.74 1756.4,1481.47 1751.93,1510.13L1700.84,1510.13L1700.84,1390.14C1799.72,1307.86 1885.9,1368.85 1998.83,1312.38C2034.85,1294.37 2060.31,1266.96 2083.29,1237.38L2220.62,1237.38ZM2483.18,1339.02C2455.56,1360.88 2425.55,1379.26 2393.08,1395.5C2358.9,1412.59 2323.67,1422.75 2291.99,1444.92C2266.73,1462.61 2255.81,1485.36 2248.74,1510.13L1959.5,1510.13C1978.31,1488.21 2000.58,1468.86 2023.55,1452.78C2131.15,1377.46 2266.48,1381.53 2373.99,1305.64C2399.85,1287.39 2419.8,1263.81 2435.82,1237.38L2483.18,1237.38L2483.18,1339.02Z" style="fill:rgb(187,173,218);"/></g></g><g transform="matrix(2.00645,0,0,2.00645,-3525.93,111.571)"><rect x="3023.91" y="478.022" width="204.364" height="274.577" style="fill:rgb(246,246,246);"/><g transform="matrix(0.874877,0,0,0.874877,391.145,76.9893)"><rect x="3023.91" y="478.022" width="204.364" height="274.577" style="fill:rgb(159,159,233);"/></g><path d="M3215.49,666.72L3215.49,734.114C3206.71,734.483 3197.98,733.731 3189.54,731.48C3155.87,722.502 3125.84,695.778 3090.53,693.701C3072.16,692.62 3054.39,695.941 3036.69,699.922L3036.69,679.571C3042.49,678.553 3048.43,678.068 3054.49,678.068C3072.84,678.068 3091.26,676.364 3109.64,677.199C3146.49,678.874 3182.29,679.327 3215.49,666.72ZM3036.69,557.5C3043.33,555.741 3050.07,554.636 3056.66,554.307C3110.14,551.633 3159.69,576.609 3215.49,573.256L3215.49,626.768C3214.51,626.806 3213.53,626.826 3212.55,626.826C3184.21,626.826 3157.14,618.406 3132.22,605.114C3116.37,596.66 3100.67,585.269 3082.71,582.099C3068.39,579.572 3051.83,579.415 3036.69,581.981L3036.69,557.5ZM3215.49,542.403C3198.78,538.471 3182.86,531.81 3166.09,527.818C3135.26,520.477 3096.54,510.014 3064.91,510.014C3051.54,510.014 3044.65,509.611 3036.69,510.424L3036.69,495.2L3215.49,495.2L3215.49,542.403Z" style="fill:rgb(187,173,218);"/></g><g transform="matrix(1.38229,0,0,1.38229,-523.61,-852.776)"><rect x="600.393" y="1088.12" width="836.448" height="876.833" style="fill:white;fill-opacity:0.27;"/></g><g transform="matrix(1.38229,0,0,1.38229,-523.61,-852.776)"><path d="M1436.84,1292.02L1436.84,1499.81C1270.52,1650.16 1105.21,1802.86 950.187,1964.96L694.412,1964.96C707.306,1952.95 720.056,1940.76 732.565,1928.25C955.709,1705.11 1198.09,1498.29 1436.84,1292.02ZM1436.84,1204.35C1200.25,1397.23 970.408,1602.35 752.074,1814.45C701.535,1863.54 651.794,1913.7 600.393,1962.02L600.393,1620.22C639.183,1586.31 678.269,1552.73 717.933,1520.19C790.674,1460.5 860.982,1397.59 932.533,1336.48C984.793,1291.84 1035.82,1245.53 1088.61,1201.54C1134.91,1162.95 1182.68,1125.95 1229.64,1088.12L1436.84,1088.12L1436.84,1204.35ZM1135.07,1088.12C1128.79,1092.35 1122.52,1096.56 1116.24,1100.74C941.226,1217.42 760.086,1337.19 600.393,1476.63L600.393,1419.92C731.764,1302.96 868.844,1192.44 1010.59,1088.12L1135.07,1088.12Z" style="fill:url(#_Linear3);"/></g><g transform="matrix(0.9505,0,0,1.06854,-194.008,-224.231)"><g transform="matrix(1.26446,0,0,1.37324,-228.377,-783.372)"><rect x="1519.7" y="1148.05" width="66.051" height="887.895" style="fill:white;"/></g><g transform="matrix(-0.22881,0,0,1.37324,2040.95,-783.372)"><rect x="1519.7" y="1148.05" width="66.051" height="887.895" style="fill:rgb(227,230,255);"/></g></g><g transform="matrix(0.9505,0,0,1.06854,-669.458,-224.231)"><g transform="matrix(1.26446,0,0,1.26446,-360.663,-554.746)"><rect x="1519.7" y="1148.05" width="66.051" height="887.895" style="fill:white;"/></g></g><g transform="matrix(0.930397,0,0,1.06854,-181.469,-224.231)"><g transform="matrix(1.26446,0,0,1.14564,-233.564,-309.345)"><rect x="626.725" y="1942.66" width="984.481" height="90.476" style="fill:rgb(227,230,255);"/></g><g transform="matrix(1,0,0,0.790839,-3.01802,428.271)"><g transform="matrix(1.26446,0,0,1.26446,-227.801,-590.574)"><rect x="626.725" y="1942.66" width="984.481" height="90.476" style="fill:rgb(246,246,246);"/></g><g transform="matrix(1.26446,0,0,-0.744017,-227.801,3492.93)"><rect x="626.725" y="1942.66" width="984.481" height="90.476" style="fill:rgb(180,188,255);"/></g></g></g><g transform="matrix(1.09319,0,0,1.09319,-283.002,-252.525)"><path d="M1684.91,1777.78C1684.91,1777.78 1556,1779.09 1496.46,1802.69C1490.37,1805.17 1485.53,1810 1483.05,1816.09C1480.57,1822.17 1480.64,1829 1483.26,1835.03C1500.8,1877.02 1538.32,1984.96 1539.95,2142.9C1542.08,2349.32 1531.53,2430.17 1531.53,2430.17L1676.67,2435.96L1684.91,1777.78Z" style="fill:rgb(159,159,233);"/></g><g transform="matrix(1.09319,0,0,1.09319,-265.288,-257.587)"><path d="M1684.91,1777.78C1684.91,1777.78 1556,1779.09 1496.46,1802.69C1490.37,1805.17 1485.53,1810 1483.05,1816.09C1480.57,1822.17 1480.64,1829 1483.26,1835.03C1500.8,1877.02 1538.32,1984.96 1539.95,2142.9C1542.08,2349.32 1531.53,2430.17 1531.53,2430.17L1676.67,2435.96L1684.91,1777.78Z" style="fill:rgb(22,26,238);"/></g><g transform="matrix(1.09319,0,0,1.09319,-283.002,-252.525)"><path d="M1700.1,1854.08L1692.88,2431.33L1547.73,2425.54C1547.73,2425.54 1553.42,2381.93 1555.6,2277C1557.48,2272.83 1559.35,2268.64 1561.21,2264.45C1618.82,2134.83 1558.79,2031.17 1659.6,1902.88C1672.19,1886.85 1683.42,1866.51 1700.1,1854.08Z" style="fill:url(#_Linear4);"/></g><g transform="matrix(-0.56716,0,0,0.56716,4324.81,237.337)"><path d="M2715.57,4119.18L2716.45,4097.71L3078.68,4037.71L4149.51,4103.48L4147.05,4122.01L3639.07,4217.43L2715.57,4119.18Z" style="fill:rgb(209,212,252);"/></g><g transform="matrix(-0.56716,0,0,0.56716,4324.81,237.337)"><path d="M2714.4,4094.89L3078.68,4037.71L4150.76,4103.29L3638.62,4177.27L2714.4,4094.89Z" style="fill:rgb(22,26,238);"/></g><g transform="matrix(1.10813,0,0,1.10813,-259.919,-161.559)"><g transform="matrix(-1.8721,0,0,2.02975,6115.06,-393.35)"><g><g transform="matrix(1.02334,-0.109575,0.13529,1.07485,-199.411,119.164)"><path d="M1969,1156C1941.6,1203.66 1913.19,1252.78 1883.08,1304.34L1957.34,1316.25C1990.3,1276.49 2016.87,1236 2039,1195L1969,1156Z" style="fill:rgb(253,198,161);"/></g><g transform="matrix(-0.499624,0,0,0.460818,3233.03,217.861)"><path d="M2396.33,2160.66C2397.56,2141.61 2399.76,2122.54 2402.65,2103.72L2457.29,2112.95C2451.28,2116.35 2457.07,2127.55 2458.5,2131.64C2464.81,2149.79 2469.63,2168.59 2475.47,2186.94C2486.99,2223.13 2488.57,2262.25 2504.49,2296.99C2518.94,2328.53 2540.41,2355.8 2555.14,2387.22L2504.57,2390.52C2461.4,2313.99 2425.91,2237.36 2396.33,2160.66Z" style="fill:url(#_Linear5);"/></g></g></g><g transform="matrix(-2.02975,0,0,2.02975,6426.36,-377.112)"><path d="M2041,1001.25C2012.67,1040.33 1956,1165 1956,1165C1956,1165 2003.03,1196.54 2031,1223L2071,1160C2071,1160 2069.33,962.173 2041,1001.25Z" style="fill:white;"/><path d="M2041,1001.25C2012.67,1040.33 1956,1165 1956,1165C1956,1165 2003.03,1196.54 2031,1223L2071,1160C2071,1160 2069.33,962.173 2041,1001.25Z" style="fill:rgb(7,45,91);"/></g><g transform="matrix(-2.02975,0,0,2.02975,6426.36,-377.112)"><path d="M2032.63,1027.12C2031.45,1014.12 2037.45,1001.52 2048.28,994.25C2051.15,992.437 2054.3,990.446 2057.77,988.38C2085.26,972.005 2132.12,950.919 2190,952C2284.03,953.756 2367.17,1010.06 2367.17,1010.06C2367.17,1010.06 2392.11,1261.19 2382.66,1350L2190,1350C2190,1350 2104.99,1233.34 2072,1187C2046.94,1151.81 2036.3,1066.24 2032.63,1027.12Z" style="fill:rgb(20,25,47);"/><g transform="matrix(0.597242,0,0,0.597242,1294.04,208.021)"><path d="M1570.87,1249.46C1570.87,1249.46 1443.42,1373 1446.5,1366.55C1449.58,1360.11 1437.21,1414.16 1437.21,1414.16L1456.32,1390.65L1489.64,1424.84L1597.07,1280.09L1570.87,1249.46Z" style="fill:url(#_Linear6);"/></g><g transform="matrix(0.597242,0,0,0.597242,1294.04,208.021)"><path d="M1442.28,1401.44L1435.53,1361.85L1388.55,1267.09L1372.07,1281.12L1393.75,1398.92L1419.38,1368.08L1442.28,1401.44Z" style="fill:url(#_Linear7);"/></g><path d="M2361,1009.59C2364.26,1011.74 2366,1013 2366,1013C2366,1013 2392.11,1261.19 2382.66,1350L2190,1350C2190,1350 2104.99,1233.34 2072,1187C2065.98,1178.55 2060.79,1167.18 2056.34,1154.26C2061.91,1158.31 2067.69,1161.14 2073.57,1162.32C2091.64,1165.93 2109.52,1155.92 2128.08,1157.98C2155.96,1161.08 2196.22,1178.14 2223.03,1163.99C2255,1147.12 2265.99,1085.2 2292.19,1056.13C2302.11,1045.13 2312.37,1033.81 2326.66,1028.56C2331.7,1026.71 2343.01,1024.55 2347.62,1028.77C2347.72,1028.85 2348.07,1029.13 2348.13,1029.27L2348.07,1029.36C2348.14,1029.35 2348.15,1029.32 2348.13,1029.27L2361,1009.59Z" style="fill:url(#_Linear8);"/><path d="M2321.17,1030.95C2322.94,1030.06 2324.76,1029.25 2326.66,1028.56C2331.7,1026.71 2343.01,1024.55 2347.62,1028.77C2347.72,1028.85 2348.07,1029.13 2348.13,1029.27L2348.07,1029.36C2348.14,1029.35 2348.15,1029.32 2348.13,1029.27L2361,1009.59C2364.26,1011.74 2366,1013 2366,1013C2366,1013 2377.92,1126.32 2382.74,1227.21C2381.47,1231.43 2380.19,1235.64 2378.9,1239.86C2372.88,1259.5 2367.81,1279.41 2361.99,1299.11C2358.57,1310.69 2355.5,1322.35 2352.26,1333.98C2350.78,1339.31 2349.27,1344.64 2347.86,1350L2190,1350C2190,1350 2181.3,1338.06 2168.38,1320.3C2174.97,1307.78 2182.41,1295.5 2188.5,1282.97C2207.43,1244.06 2223.68,1204.68 2244.93,1166.96C2257.82,1144.08 2273.23,1122.86 2288.7,1101.69C2293.85,1094.64 2299.33,1087.91 2304.68,1081.02C2306.55,1078.61 2308.48,1076.25 2310.2,1073.72C2310.54,1073.23 2311.32,1071.97 2311.53,1071.68L2321.17,1030.95ZM2311.53,1071.68L2311.51,1071.76C2311.6,1071.59 2311.59,1071.58 2311.53,1071.68Z" style="fill:url(#_Linear9);"/></g><g transform="matrix(-0.493627,0,0,0.511817,4057.43,360.439)"><path d="M4175.1,3875.84C4230.03,3868.75 4351.89,3849.47 4568.61,3798.78C4788.53,3747.34 4988.39,3668 4988.39,3668L4733.77,3134.32C4733.77,3134.32 4594.8,2737.03 4816,2614.3C4900.22,2567.58 4913.92,2561.7 4936.8,2607.29C5026.95,2786.95 5286.99,3500.86 5337.6,3672.1C5388.22,3843.33 5394.84,3898.6 5367.41,3935.67C5339.99,3972.73 4741.9,4098.37 4574.34,4087.5C4431.19,4078.22 4204.2,4066.71 4141.13,4063.56C4130.83,4072.05 4119.54,4079.38 4107.58,4085.27C4054.69,4111.29 4002.21,4103.51 3946.74,4095.93C3933.31,4094.1 3919.16,4103.72 3907.51,4107.69C3880.65,4116.83 3851.05,4123.58 3822.74,4125.54C3790.2,4127.79 3751.98,4123.29 3720.71,4114.4C3703.45,4109.5 3687.23,4099.16 3669.07,4096.6C3651.19,4094.08 3633.18,4089.45 3614.99,4093.73C3607.82,4095.42 3579.37,4093.23 3570.37,4087.42C3563.4,4082.92 3553.53,4080.19 3548.13,4073.75C3535.96,4059.24 3564.59,4014.37 3569.72,4000.07C3580.86,3969.07 3587.1,3869.87 3603.14,3850.21C3605.24,3847.64 3609.23,3845.19 3612.13,3843.61C3624.74,3836.71 3639.2,3832.07 3651.27,3824.15C3657.26,3820.21 3660.56,3813.94 3667.16,3810.47C3690.69,3798.09 3716.85,3801.87 3741.45,3795.81C3768.28,3789.19 3795.21,3782.77 3821.75,3774.76C3845.61,3767.56 3869.41,3753.55 3895.14,3758.44C3958.52,3770.51 4019.37,3807.78 4075.81,3837.26C4095.63,3847.61 4116.74,3857.56 4137.9,3864.95C4149.65,3869.05 4164.96,3867.29 4174.9,3875.45L4175.1,3875.84Z" style="fill:rgb(253,198,161);"/></g><g transform="matrix(-0.493627,0,0,0.511817,4057.43,360.439)"><path d="M5319.21,3613.71C5326.84,3637.01 5333.06,3656.74 5337.6,3672.1C5388.22,3843.33 5394.84,3898.6 5367.41,3935.67C5339.99,3972.73 4741.9,4098.37 4574.34,4087.5C4431.19,4078.22 4204.2,4066.71 4141.13,4063.56C4130.83,4072.05 4119.54,4079.38 4107.58,4085.27C4054.69,4111.29 4002.21,4103.51 3946.74,4095.93C3933.31,4094.1 3919.16,4103.72 3907.51,4107.69C3880.65,4116.83 3851.05,4123.58 3822.74,4125.54C3790.2,4127.79 3751.98,4123.29 3720.71,4114.4C3703.45,4109.5 3687.23,4099.16 3669.07,4096.6C3651.19,4094.08 3633.18,4089.45 3614.99,4093.73C3607.82,4095.42 3578.98,4093.64 3569.98,4087.83C3563.01,4083.33 3553.14,4080.6 3547.74,4074.16C3540.61,4065.65 3547.49,4046.72 3555.44,4029.62C3582.31,4041.11 3591.2,4039.71 3595.55,4029.18C3615.31,3981.49 3604.33,3908.76 3647.08,3876.43L3643.3,3915.81C3635.57,3945.82 3606.4,4006.6 3622.57,4036.24C3624.93,4040.56 3668.51,4046.32 3669.56,4044.9C3689.5,4017.72 3711.89,3850.76 3742.38,3849.37C3744.43,3849.28 3734.22,3892.2 3733.67,3894.98C3728.68,3919.97 3691.6,4037.18 3717.84,4047.71C3791.74,4077.35 3790.6,4021.51 3798.71,3973.43C3802.02,3953.85 3811.44,3935.4 3816.68,3916.35C3827.57,3876.83 3840.18,3834.12 3842.64,3836.25C3861.4,3852.51 3805.25,4032.45 3823.31,4061.79C3824.6,4063.87 3836.98,4066.54 3839.78,4068.1C3907.68,4106.05 3902.8,3878.43 3926.9,3861.9C3927.22,3861.68 3933.04,3871.17 3933.41,3871.7C3948.13,3892.57 3943.26,3983.87 3952.23,3997C3965.05,4015.78 3987.38,4021.62 4010.34,4024.4C4034.33,4027.31 4047.08,4017.07 4061.31,4004.24C4074.68,3992.18 4087.99,3977.05 4108.63,3969.13C4116.76,3966 4125.88,3959.92 4134.94,3961.37C4151.87,3964.09 4151.65,3981.57 4163.89,3990.11C4182.39,4003 4210.18,3989.51 4231.73,3993.31C4433.49,4028.93 4649.48,4008.4 4846.56,3956.29C4936.39,3932.53 5025.76,3913.6 5113.99,3884.33C5138.5,3876.2 5162.91,3862.42 5189.72,3856.76C5294.81,3834.57 5099.95,3718.13 5008.54,3676.01C4963.24,3655.14 5111.16,3662.51 5098.14,3645.48L5319.21,3613.71Z" style="fill:rgb(254,168,119);"/></g><g transform="matrix(-0.520047,0,0,0.513536,4180.44,351.15)"><path d="M4924.95,3669.09L4707.48,3137.84C4707.48,3137.84 4630.02,2954.53 4614.88,2799.71C4610.59,2755.88 4707.78,2667.02 4777.19,2610.76C4852.16,2549.99 4920.88,2557.13 4944.93,2602.11C5051.79,2801.99 5283.78,3475.42 5334.4,3646.66C5361.47,3738.25 5379.16,3822.11 5382.58,3862.3C5370.45,3851.38 5357.68,3841.38 5345.4,3833.02C5260.76,3775.42 5063.91,3707.06 4965.71,3679.01C4960.32,3677.47 4943.91,3673.29 4924.95,3669.09Z" style="fill:rgb(20,25,47);"/></g><g transform="matrix(-1.21225,0,0,1.21225,3799.79,23.7561)"><path d="M1768.81,1358.72C1786.55,1354.67 1800.8,1360.3 1807.33,1372.38C1853.17,1457.05 1952.7,1742.33 1974.41,1814.87C1986.03,1853.67 1993.62,1889.2 1995.08,1906.22C1989.88,1901.6 1984.4,1897.36 1979.13,1893.82C1969.45,1887.32 1956.36,1880.49 1941.56,1873.75C1933.21,1864.39 1925.3,1854.63 1917.37,1845.13C1903.93,1829.02 1885.51,1816.62 1869.76,1802.88C1860.15,1794.51 1850.25,1784.36 1838.29,1779.37C1835.19,1778.08 1828.88,1778.37 1827.02,1774.87C1826.35,1773.6 1828.96,1772.73 1830.04,1771.77C1844.52,1758.8 1872,1752.89 1872.19,1750.54C1872.62,1745.28 1752.32,1391.51 1756.83,1374.65C1758.46,1368.55 1763.63,1363.43 1768.81,1358.72Z" style="fill:url(#_Linear10);"/></g><g transform="matrix(-0.511817,0,0,0.47494,4132.63,496.969)"><path d="M4919.45,3590.06C4904.37,3590.59 4873.68,3609.28 4884.99,3633.4C4887.4,3638.55 4906.56,3646.42 4905.99,3652.03C4904.74,3664.58 4877.71,3677.16 4894.24,3689.33C4901.62,3694.76 4926.44,3687.26 4935.48,3687.96C4948.46,3688.97 4962.29,3692.68 4974.73,3696.55C5042.2,3717.55 5147.04,3735.45 5211.31,3764.66C5227.12,3771.85 5307.95,3830.2 5317.37,3829.55C5324.37,3829.07 5346.43,3788.16 5350.86,3780.56C5355.62,3772.4 5361.05,3764.67 5366.2,3756.77C5389.41,3721.14 5387.51,3711.41 5350.59,3690.18C5343.33,3686 5334.26,3682.68 5329.86,3675.02C5322.49,3662.18 5340.5,3650.27 5323.49,3638.93C5286.93,3614.56 5235.28,3604.66 5193.91,3596.98C5110.54,3581.5 4964.88,3588.43 4919.45,3590.06Z" style="fill:rgb(27,33,63);"/></g><g transform="matrix(-1.21225,0,0,1.21225,3799.79,23.7561)"><path d="M1389.09,1267.93L1570.28,1249.89L1567.57,1287.92L1386.94,1289.49L1389.09,1267.93Z" style="fill:rgb(20,25,47);"/></g><g transform="matrix(-2.24018,0,0,2.24018,6902.35,-581.55)"><path d="M2219.45,897.242C2221.41,918.293 2225.08,937.789 2230.91,955.325L2245.91,961.773C2245.91,961.773 2226.78,1003.12 2178.9,1007.13C2124.76,1011.67 2127.12,972.165 2140.77,960.725C2142.89,958.948 2146.15,959.359 2146.15,959.359C2146.15,959.359 2160.49,963.653 2161.59,963.855L2165.18,960.112L2219.45,897.242Z" style="fill:rgb(253,198,161);"/><g transform="matrix(-0.41753,0,0,0.41753,3053.25,281.407)"><path d="M1979.49,1580.01C1987.83,1547.27 1993.52,1512.12 1996.96,1474.95L2126.96,1625.52L2135.56,1634.49C2137.25,1634.18 2152.08,1629.81 2162.43,1626.73C2163.57,1635.23 2163.46,1642.95 2161.82,1649.52C2153.49,1682.85 2047.35,1602.38 2037.21,1607.45C2034.75,1608.67 2037.5,1614.25 2038.02,1615.54C2048.04,1640.6 2058.15,1668.29 2073.62,1690.79C2074.75,1692.43 2087.23,1707.12 2084.14,1710.21C2083.19,1711.16 2080,1708.95 2079.28,1708.59C2063.44,1700.67 2051.18,1682.13 2039.64,1668.94C2021.29,1647.98 1995.87,1614.16 1979.49,1580.01Z" style="fill:url(#_Linear11);"/></g></g><g transform="matrix(2.10992,1.01376,-1.01376,2.10992,354.665,-130.263)"><path d="M892.504,306.79C894.144,311.961 911.935,330.494 935.283,337.682C958.632,344.869 973.651,343.237 978.838,340.476C984.026,337.716 990.658,327.299 990.561,324.728C990.464,322.157 992.328,304.662 992.908,287.126C993.488,269.59 992.211,259.659 987.488,245.864C982.851,232.323 984.232,231.214 981.684,222.194C977.725,208.185 956.927,179.199 956.927,179.199L876.083,213.753L872.688,240.647L862.237,256.991L883.773,283.296C883.773,283.296 864.283,268.842 855.722,272.738C847.162,276.635 865.849,297.716 875.425,300.565C885.001,303.413 890.864,301.62 892.504,306.79Z" style="fill:rgb(253,198,161);"/><path d="M869.083,274.678C876.622,277.993 883.773,283.296 883.773,283.296L862.237,256.991L872.688,240.647L875.534,218.103C895.108,205.966 921,202.896 942.969,201.797L956.653,209.137C962.65,205.958 967.677,215.942 965.915,220.64C963.507,227.061 953.208,231.081 947.446,233.139C933.387,238.16 918.892,233.057 904.911,236.87C897.807,238.808 892.327,245.811 893.158,253.287C894.648,266.694 913.983,269.948 920.671,279.98C923.636,284.427 928.34,310.978 943.989,321.399C951.264,326.244 967.744,335.071 974.87,334.626C978.428,334.403 981.986,334.085 985.555,334.067C983.467,336.79 981.025,339.313 978.838,340.476C973.651,343.237 958.632,344.869 935.283,337.682C911.935,330.494 894.144,311.961 892.504,306.79C890.864,301.62 885.001,303.413 875.425,300.565C867.901,298.327 854.753,284.833 853.615,277.263C853.857,277.1 854.103,276.962 854.334,276.854C856.417,275.882 858.447,275.325 860.744,275.229C866.41,274.993 871.195,279.781 874.557,283.851C875.741,285.285 876.999,286.713 877.717,288.456C877.856,288.793 877.939,289.143 878.033,289.494C878.118,289.814 878.098,289.797 878.123,290.126C878.144,290.4 878.247,290.799 878.168,291.074C877.881,292.08 876.006,291.039 875.505,290.803C872.792,289.526 870.636,286.894 867.65,286.109C866.81,285.887 864.118,285.26 863.949,286.786C863.69,289.118 866.225,290.881 867.741,292.157C871.052,294.946 875.574,296.536 879.884,296.536C882.499,296.536 885.264,295.797 886.52,293.286C887.307,291.712 886.778,289.816 886.113,288.32C884.893,285.574 882.68,283.431 880.38,281.549C878.978,280.402 877.424,279.468 875.911,278.48C874.694,277.684 873.424,277.032 872.165,276.313C871.199,275.761 870.164,275.203 869.083,274.678Z" style="fill:url(#_Linear12);"/><path d="M940.135,221.147C926.037,224.437 890.937,214.26 882.074,231.04C877.33,240.023 891.529,243.861 882.099,250.491C872.668,257.12 892.582,288.357 891.19,289.735C889.798,291.114 885.165,288.418 884.321,287.314C883.478,286.211 866.673,268.896 857.484,273.473C848.295,278.05 861.304,289.867 868.087,295.448C874.87,301.03 887.236,301.864 890.424,302.373C893.611,302.882 894.476,310.439 894.476,310.439C894.476,310.439 847.978,299.575 830.761,273.297C813.544,247.02 832.989,239.456 832.989,239.456C832.989,239.456 824.369,202.613 829.566,200.126C834.762,197.639 839.526,206.052 839.526,206.052C833.796,184.808 864.886,180.035 898.807,181.365C913.756,181.951 943.981,172.422 957.12,174.491C977.524,177.703 977.512,192.934 975.644,194.258C975.027,194.695 973.642,195.526 973.642,195.526C973.642,195.526 966.612,199.977 962.712,201.973C966.182,203.907 967.206,207.667 963.179,211.024C957.9,215.423 946.675,219.621 940.135,221.147Z" style="fill:rgb(6,25,28);"/><g transform="matrix(-0.188984,0.090802,0.10718,0.223072,1490.44,-539.318)"><path d="M4340.07,1565.11C4326.58,1556.35 4335.6,1508.57 4275.6,1486.19C4257.54,1479.45 4236.24,1482.49 4217.27,1481.64C4082.13,1475.65 3948.67,1538.98 3819.52,1533.28C3791.8,1532.06 3696.17,1454.05 3675.12,1481.18C3664,1495.52 3714.26,1554.18 3722.46,1570.26C3723.12,1571.54 3712.47,1571.06 3712.16,1571.03C3699.86,1569.93 3687.14,1570.78 3674.8,1570.78C3648.89,1570.78 3580.11,1586.32 3575.54,1618.75C3571.97,1644.12 3629.18,1656.56 3646.07,1659.59C3670.31,1663.94 3679.62,1665.53 3679.59,1665.6C3674.43,1679.62 3640.98,1677.17 3645.1,1719.33C3647.34,1742.26 3681.03,1756.41 3698.88,1763.73C3716.27,1770.86 3739.32,1774.4 3758.18,1772.05C3783.21,1768.92 3891.62,1719.84 3907.5,1698.82" style="fill:rgb(6,25,28);"/></g><path d="M960.743,219.472C960.586,219.419 960.674,219.374 960.774,219.308" style="fill:rgb(6,25,28);"/><g transform="matrix(0.998121,0.0612774,-0.0612774,0.998121,7.70535,-59.5277)"><path d="M965.156,239.203C965.156,239.203 978.049,257.847 987.548,262.641C997.047,267.435 998.155,268.973 998.609,272.011C999.063,275.049 992.833,281.425 989.062,283.22C985.29,285.015 979.126,284.434 979.126,284.434C979.126,284.434 977.265,281.144 978.086,277.985C978.907,274.825 965.156,239.203 965.156,239.203Z" style="fill:rgb(253,198,161);"/></g><g transform="matrix(0.998121,0.0612774,-0.0612774,0.998121,6.99491,-53.4906)"><path d="M965.156,239.203C965.156,239.203 978.049,257.847 987.548,262.641C997.047,267.435 998.155,268.973 998.609,272.011C999.063,275.049 992.833,281.425 989.062,283.22C985.29,285.015 979.126,284.434 979.126,284.434C979.126,284.434 977.265,281.144 978.086,277.985C978.907,274.825 965.156,239.203 965.156,239.203Z" style="fill:url(#_Linear13);"/></g></g><g transform="matrix(-1.21225,0,0,1.21225,3799.79,23.7561)"><path d="M1570.87,1249.46C1570.87,1249.46 1443.42,1373 1446.5,1366.55C1449.58,1360.11 1437.21,1414.16 1437.21,1414.16L1456.32,1390.65L1489.64,1424.84L1597.07,1280.09L1570.87,1249.46Z" style="fill:rgb(20,25,47);"/></g><g transform="matrix(-1.21225,0,0,1.21225,3799.79,23.7561)"><path d="M1442.28,1401.44L1435.53,1361.85L1388.55,1267.09L1372.07,1281.12L1393.75,1398.92L1419.38,1368.08L1442.28,1401.44Z" style="fill:rgb(20,25,47);"/></g></g><g transform="matrix(1.56011,0,0,1.56011,-2060.46,88.4056)"><g transform="matrix(1.59703,0,0,0.492177,-792.994,505.642)"><rect x="1603.71" y="998.715" width="5.897" height="784.325" style="fill:rgb(153,207,237);"/></g><g transform="matrix(0.70071,0,0,0.70071,1139.31,-218.529)"><path d="M910.911,1834.78C906.263,1832.76 901.815,1830.5 897.471,1828.02L897.471,1734.98L910.911,1734.98L910.911,1834.78Z" style="fill:rgb(127,195,232);"/></g></g><g transform="matrix(3.97103,0,0,3.97103,-5046.54,-2970.46)"><g transform="matrix(1,0,0,1,-599.721,0)"><path d="M2338.14,1361.93C2334.55,1362.09 2338.27,1353.06 2338.74,1351.76C2339.01,1351.04 2339.2,1350.3 2339.47,1349.58C2342.9,1340.44 2350.19,1330.16 2358.76,1325.02C2361.09,1323.62 2366.73,1320.25 2369.31,1322.83C2372.61,1326.13 2365.8,1332.34 2363.85,1334.48C2358.13,1340.77 2351,1345.85 2344.75,1351.58C2341.86,1354.23 2337.65,1358.83 2337.65,1363.04" style="fill:rgb(114,124,245);"/></g><g transform="matrix(1,0,0,1,-599.721,0)"><path d="M2339.39,1361.64C2338.93,1361.4 2338.55,1361.95 2338.02,1361.77C2335.51,1360.93 2335.22,1354.92 2334.92,1353.04C2333.68,1345.14 2332.34,1335.83 2334.2,1327.93C2334.95,1324.74 2337.52,1316.23 2342.2,1317.01C2345.92,1317.63 2345.67,1325.44 2345.3,1327.93C2344.21,1335.18 2343,1343.53 2340.56,1350.49C2339.3,1354.11 2335.57,1358.36 2336.56,1362.31" style="fill:rgb(114,124,245);"/></g><g transform="matrix(1,0,0,1,-599.721,0)"><path d="M2339.63,1362.55C2337.62,1359.53 2336.99,1355.77 2335.83,1352.31C2334.16,1347.29 2329.55,1340.04 2325.28,1336.84C2321.32,1333.87 2311.24,1334.92 2313.64,1342.12C2315.2,1346.82 2320.41,1347.08 2323.64,1349.76C2326.19,1351.88 2328.62,1352.21 2331.47,1353.76C2335.4,1355.91 2338.16,1360.25 2340.38,1363.95" style="fill:rgb(114,124,245);"/></g><g transform="matrix(1,0,0,1,-19.0969,0)"><path d="M1780.93,1355.61L1725.88,1355.61L1735.51,1408.87C1748.03,1413.54 1760.33,1413.45 1772.43,1408.87L1780.93,1355.61Z" style="fill:white;"/></g></g></g></g><g transform="matrix(5.83625,0,0,5.83625,-8590.36,-4004.19)"><g transform="matrix(1,0,0.140541,1,-182.006,-17.3001)"><path d="M2110.64,1165.72C2110.64,1160.01 2106,1155.37 2100.29,1155.37L1752.93,1155.37C1747.22,1155.37 1742.58,1160.01 1742.58,1165.72L1742.58,1383.19C1742.58,1388.9 1747.22,1393.54 1752.93,1393.54L2100.29,1393.54C2106,1393.54 2110.64,1388.9 2110.64,1383.19L2110.64,1165.72Z" style="fill:rgb(159,159,233);"/><g transform="matrix(-0.358134,0,-0.0503325,0.358134,2989.53,571.068)"><path d="M3234.3,1761.03L3163.1,2267.64C3160.86,2283.6 3146.09,2296.55 3130.14,2296.55L2160.23,2296.55C2144.28,2296.55 2133.15,2283.6 2135.39,2267.64L2160.52,2088.83C2178.4,2092.32 2196.83,2091.87 2216.04,2091.87C2399.37,2091.87 2456.77,1919.63 2591.92,1852.05C2684.44,1805.79 2762.99,1827.57 2860.66,1831.64C2989.64,1837.02 3124.13,1820.18 3234.3,1761.03Z" style="fill:url(#_Linear14);"/></g><g transform="matrix(1,0,-0.112172,1,142.912,15.3408)"><rect x="1885.96" y="1268.44" width="60.774" height="107.796" style="fill:url(#_Linear15);"/></g><path d="M2100.29,1155.37C2106,1155.37 2110.64,1160.01 2110.64,1165.72L2110.64,1383.19C2110.64,1388.9 2106,1393.54 2100.29,1393.54L2093.11,1393.54C2098.82,1393.54 2103.46,1388.9 2103.46,1383.19L2103.46,1165.72C2103.46,1160.01 2098.82,1155.37 2093.11,1155.37L2100.29,1155.37Z" style="fill:rgb(179,179,237);"/><g><g transform="matrix(1,0,0,0.764254,-1.79976,317.256)"><rect x="2068.59" y="1367.73" width="4.711" height="19.568" style="fill:rgb(80,80,229);"/></g><g transform="matrix(0.426085,0,0,0.764254,1185.4,317.256)"><rect x="2068.59" y="1367.73" width="4.711" height="19.568" style="fill:rgb(156,156,240);"/></g></g><g transform="matrix(1,0,0,1,-15.3297,0)"><g transform="matrix(1,0,0,0.764254,-1.79976,317.256)"><rect x="2068.59" y="1367.73" width="4.711" height="19.568" style="fill:rgb(80,80,229);"/></g><g transform="matrix(0.426085,0,0,0.764254,1185.4,317.256)"><rect x="2068.59" y="1367.73" width="4.711" height="19.568" style="fill:rgb(156,156,240);"/></g></g><g transform="matrix(1,0,0,1,-30.6595,0)"><g transform="matrix(1,0,0,0.764254,-1.79976,317.256)"><rect x="2068.59" y="1367.73" width="4.711" height="19.568" style="fill:rgb(80,80,229);"/></g><g transform="matrix(0.426085,0,0,0.764254,1185.4,317.256)"><rect x="2068.59" y="1367.73" width="4.711" height="19.568" style="fill:rgb(156,156,240);"/></g></g></g><path d="M1865.53,1270.29C1866.28,1266.35 1869.73,1263.5 1873.74,1263.52C1888.76,1263.58 1924.01,1263.72 1936.73,1263.77C1939.7,1263.78 1942.51,1265.11 1944.4,1267.4C1945.25,1268.43 1945.96,1269.29 1945.96,1269.29C1945.96,1269.29 1931.09,1358.75 1926.01,1389.37C1925.6,1391.82 1926.21,1394.32 1927.71,1396.31C1929.2,1398.29 1931.44,1399.57 1933.91,1399.85C1945.34,1401.16 1963.76,1403.26 1969.38,1403.9C1970.39,1404.02 1971.23,1404.75 1971.48,1405.73C1971.73,1406.66 1971.52,1407.65 1970.93,1408.41C1970.35,1409.17 1969.44,1409.62 1968.48,1409.61C1951.31,1409.55 1883.74,1409.32 1853.76,1409.21C1850.19,1409.2 1846.81,1407.6 1844.53,1404.85C1842.26,1402.09 1841.33,1398.47 1841.99,1394.96C1847.79,1364.26 1861.31,1292.66 1865.53,1270.29Z" style="fill:rgb(246,246,246);"/><path d="M1941.29,1264.93C1942.4,1265.38 1944.61,1267.26 1945.99,1269.11C1945.99,1269.11 1931.09,1358.75 1926.01,1389.37C1925.6,1391.82 1926.21,1394.32 1927.71,1396.31C1929.2,1398.29 1931.44,1399.57 1933.91,1399.85C1945.34,1401.16 1963.76,1403.26 1969.38,1403.9C1970.39,1404.02 1971.23,1404.75 1971.48,1405.73C1971.73,1406.66 1971.52,1407.65 1970.93,1408.41C1970.35,1409.17 1969.44,1409.62 1968.48,1409.61L1960.34,1409.58C1952.56,1408.95 1939.08,1407.94 1927.99,1405.47C1925.56,1404.93 1917.6,1399.14 1919.04,1389.77C1923.76,1359.09 1941.29,1264.93 1941.29,1264.93Z" style="fill:rgb(159,159,233);"/></g></g><g transform="matrix(0.99845,-0.0556495,0.0556495,0.99845,-57.9226,35.2823)"><path d="M603.256,843.741C514.279,890.296 374.642,973.22 294.282,1098.63C238.352,1185.92 201.177,1319.04 355.36,1309.54C442.576,1304.17 557.842,1219.97 636.227,1179.29C719.075,1136.28 1014.44,1022.87 955.667,889.456C931.822,835.326 876.547,815.983 821.836,807.409C786.369,801.851 676.417,805.462 603.256,843.741Z" style="fill:rgb(227,230,255);"/></g></g><g transform="matrix(1.22804,0,0,1.22804,-30.4875,-214.878)"><path d="M1959.07,801.767C1959.07,793.682 1952.51,787.117 1944.42,787.117L1382.74,787.117C1374.66,787.117 1368.09,793.682 1368.09,801.767L1368.09,1194.11C1368.09,1202.2 1374.66,1208.76 1382.74,1208.76L1944.42,1208.76C1952.51,1208.76 1959.07,1202.2 1959.07,1194.11L1959.07,801.767Z" style="fill:rgb(156,156,240);fill-opacity:0.25;"/></g><g><g transform="matrix(1.22804,0,0,1.22804,-521.419,-232.226)"><g transform="matrix(1,0,0,1,390.304,0)"><path d="M1959.07,801.767C1959.07,793.682 1952.51,787.117 1944.42,787.117L1382.74,787.117C1374.66,787.117 1368.09,793.682 1368.09,801.767L1368.09,1194.11C1368.09,1202.2 1374.66,1208.76 1382.74,1208.76L1944.42,1208.76C1952.51,1208.76 1959.07,1202.2 1959.07,1194.11L1959.07,801.767Z" style="fill:rgb(246,246,246);"/></g><g transform="matrix(0.922881,0,0,0.922881,381.914,74.2715)"><path d="M1491.51,792.875L2131.87,792.875L2131.87,788.287C2131.87,779.527 2124.76,772.414 2116,772.414L1507.38,772.414C1498.62,772.414 1491.51,779.527 1491.51,788.287L1491.51,792.875Z" style="fill:rgb(22,26,238);"/></g><g transform="matrix(0.809133,0,0,0.809133,1160.41,157.124)"><circle cx="1402.32" cy="789.983" r="3.346" style="fill:white;"/></g><g transform="matrix(0.809133,0,0,0.809133,1177.31,157.124)"><circle cx="1402.32" cy="789.983" r="3.346" style="fill:white;"/></g><g transform="matrix(0.809133,0,0,0.809133,1194.22,157.124)"><circle cx="1402.32" cy="789.983" r="3.346" style="fill:white;"/></g><g transform="matrix(0.814302,0,0,0.814302,423.095,179.209)"><path d="M1898.05,814.334C1898.05,806.956 1892.06,800.966 1884.68,800.966L1708.25,800.966C1700.87,800.966 1694.88,806.956 1694.88,814.334L1694.88,1206.31C1694.88,1213.69 1700.87,1219.68 1708.25,1219.68L1884.68,1219.68C1892.06,1219.68 1898.05,1213.69 1898.05,1206.31L1898.05,814.334Z" style="fill:rgb(156,156,240);"/></g><g transform="matrix(0.814302,0,0,0.814302,424.593,189.102)"><path d="M1869.1,1036.89C1869.1,1032.77 1865.76,1029.42 1861.63,1029.42L1732.99,1029.42C1728.87,1029.42 1725.52,1032.77 1725.52,1036.89C1725.52,1041.01 1728.87,1044.36 1732.99,1044.36L1861.63,1044.36C1865.76,1044.36 1869.1,1041.01 1869.1,1036.89Z" style="fill:rgb(246,246,246);"/></g><g transform="matrix(0.814302,0,0,0.814302,424.593,212.958)"><path d="M1869.1,1036.89C1869.1,1032.77 1865.76,1029.42 1861.63,1029.42L1732.99,1029.42C1728.87,1029.42 1725.52,1032.77 1725.52,1036.89C1725.52,1041.01 1728.87,1044.36 1732.99,1044.36L1861.63,1044.36C1865.76,1044.36 1869.1,1041.01 1869.1,1036.89Z" style="fill:rgb(246,246,246);"/></g><g transform="matrix(0.814302,0,0,0.814302,424.593,261.788)"><path d="M1869.1,1036.89C1869.1,1032.77 1865.76,1029.42 1861.63,1029.42L1823.32,1029.42C1819.19,1029.42 1815.85,1032.77 1815.85,1036.89C1815.85,1041.01 1819.19,1044.36 1823.32,1044.36L1861.63,1044.36C1865.76,1044.36 1869.1,1041.01 1869.1,1036.89Z" style="fill:rgb(246,246,246);"/></g><g transform="matrix(0.76798,0,0,0.76798,505.419,231.538)"><circle cx="1798.71" cy="898.513" r="87.158" style="fill:white;"/></g><g transform="matrix(0.888115,-3.01669e-17,3.01669e-17,0.888115,152.422,402.294)"><path d="M1904.73,614.292C1911.71,594.171 1930.85,579.71 1953.34,579.71C1975.82,579.71 1994.96,594.171 2001.94,614.292C1993.94,633.231 1975.18,646.534 1953.34,646.534C1931.5,646.534 1912.74,633.231 1904.73,614.292Z" style="fill:rgb(22,26,238);"/></g><g transform="matrix(1.0399,-6.03337e-17,6.03337e-17,1.0399,-142.461,310.966)"><circle cx="1950.85" cy="560.428" r="16.664" style="fill:rgb(22,26,238);"/></g></g><g transform="matrix(1,0,0,1,-0.975682,18.163)"><path d="M2301.28,866.008C2301.28,859.047 2295.63,853.394 2288.67,853.394L1964.15,853.394C1957.19,853.394 1951.54,859.047 1951.54,866.008C1951.54,872.97 1957.19,878.623 1964.15,878.623L2288.67,878.623C2295.63,878.623 2301.28,872.97 2301.28,866.008Z" style="fill:rgb(156,156,240);"/></g><g transform="matrix(1,0,0,1,-0.975682,94.0953)"><path d="M2301.28,866.008C2301.28,859.047 2295.63,853.394 2288.67,853.394L1964.15,853.394C1957.19,853.394 1951.54,859.047 1951.54,866.008C1951.54,872.97 1957.19,878.623 1964.15,878.623L2288.67,878.623C2295.63,878.623 2301.28,872.97 2301.28,866.008Z" style="fill:rgb(156,156,240);"/></g><g transform="matrix(1,0,0,1,-0.975682,170.028)"><path d="M2301.28,866.008C2301.28,859.047 2295.63,853.394 2288.67,853.394L1964.15,853.394C1957.19,853.394 1951.54,859.047 1951.54,866.008C1951.54,872.97 1957.19,878.623 1964.15,878.623L2288.67,878.623C2295.63,878.623 2301.28,872.97 2301.28,866.008Z" style="fill:rgb(156,156,240);"/></g><g transform="matrix(1,0,0,1,-2.88112,0.218901)"><path d="M2295.89,911.619C2295.89,908.648 2293.48,906.236 2290.51,906.236L2237.2,906.236C2234.22,906.236 2231.81,908.648 2231.81,911.619C2231.81,914.59 2234.22,917.002 2237.2,917.002L2290.51,917.002C2293.48,917.002 2295.89,914.59 2295.89,911.619Z" style="fill:rgb(156,156,240);"/></g><g transform="matrix(1,0,0,1,-2.88112,75.7173)"><path d="M2295.89,911.619C2295.89,908.648 2293.48,906.236 2290.51,906.236L2237.2,906.236C2234.22,906.236 2231.81,908.648 2231.81,911.619C2231.81,914.59 2234.22,917.002 2237.2,917.002L2290.51,917.002C2293.48,917.002 2295.89,914.59 2295.89,911.619Z" style="fill:rgb(156,156,240);"/></g><g transform="matrix(1,0,0,1,-2.88112,151.216)"><path d="M2295.89,911.619C2295.89,908.648 2293.48,906.236 2290.51,906.236L2237.2,906.236C2234.22,906.236 2231.81,908.648 2231.81,911.619C2231.81,914.59 2234.22,917.002 2237.2,917.002L2290.51,917.002C2293.48,917.002 2295.89,914.59 2295.89,911.619Z" style="fill:rgb(156,156,240);"/></g><g transform="matrix(1.84666,0,0,1.84666,-1946.73,-549.678)"><path d="M2295.89,911.619C2295.89,908.648 2293.48,906.236 2290.51,906.236L2237.2,906.236C2234.22,906.236 2231.81,908.648 2231.81,911.619C2231.81,914.59 2234.22,917.002 2237.2,917.002L2290.51,917.002C2293.48,917.002 2295.89,914.59 2295.89,911.619Z" style="fill:rgb(156,156,240);"/></g></g></g><defs><linearGradient id="_Linear2" x1="0" y1="0" x2="1" y2="0" gradientUnits="userSpaceOnUse" gradientTransform="matrix(-388.683,-690.51,690.51,-388.683,1360.16,2161.32)"><stop offset="0" style="stop-color:rgb(35,35,121);stop-opacity:0"/><stop offset="1" style="stop-color:rgb(35,35,121);stop-opacity:1"/></linearGradient><linearGradient id="_Linear3" x1="0" y1="0" x2="1" y2="0" gradientUnits="userSpaceOnUse" gradientTransform="matrix(706.522,-1035.02,1035.02,706.522,908.65,1994.79)"><stop offset="0" style="stop-color:white;stop-opacity:0"/><stop offset="1" style="stop-color:white;stop-opacity:1"/></linearGradient><linearGradient id="_Linear4" x1="0" y1="0" x2="1" y2="0" gradientUnits="userSpaceOnUse" gradientTransform="matrix(251.404,566.309,-566.309,251.404,1570.31,1927.84)"><stop offset="0" style="stop-color:rgb(95,192,244);stop-opacity:0"/><stop offset="1" style="stop-color:rgb(95,192,244);stop-opacity:1"/></linearGradient><linearGradient id="_Linear5" x1="0" y1="0" x2="1" y2="0" gradientUnits="userSpaceOnUse" gradientTransform="matrix(-139.201,78.1252,-78.1252,-139.201,2554.45,2288.94)"><stop offset="0" style="stop-color:rgb(254,141,80);stop-opacity:0"/><stop offset="1" style="stop-color:rgb(254,141,80);stop-opacity:1"/></linearGradient><linearGradient id="_Linear6" x1="0" y1="0" x2="1" y2="0" gradientUnits="userSpaceOnUse" gradientTransform="matrix(224.992,0,0,175.379,1372.07,1337.15)"><stop offset="0" style="stop-color:black;stop-opacity:0"/><stop offset="1" style="stop-color:black;stop-opacity:1"/></linearGradient><linearGradient id="_Linear7" x1="0" y1="0" x2="1" y2="0" gradientUnits="userSpaceOnUse" gradientTransform="matrix(224.992,0,0,175.379,1372.07,1337.15)"><stop offset="0" style="stop-color:black;stop-opacity:0"/><stop offset="1" style="stop-color:black;stop-opacity:1"/></linearGradient><linearGradient id="_Linear8" x1="0" y1="0" x2="1" y2="0" gradientUnits="userSpaceOnUse" gradientTransform="matrix(340.16,213.736,-213.736,340.16,2122.56,1087.83)"><stop offset="0" style="stop-color:black;stop-opacity:0"/><stop offset="1" style="stop-color:black;stop-opacity:1"/></linearGradient><linearGradient id="_Linear9" x1="0" y1="0" x2="1" y2="0" gradientUnits="userSpaceOnUse" gradientTransform="matrix(-221,-387,387,-221,2364,1348)"><stop offset="0" style="stop-color:black;stop-opacity:0"/><stop offset="1" style="stop-color:black;stop-opacity:1"/></linearGradient><linearGradient id="_Linear10" x1="0" y1="0" x2="1" y2="0" gradientUnits="userSpaceOnUse" gradientTransform="matrix(362.33,6.44539,-6.44539,362.33,1772.32,1732.75)"><stop offset="0" style="stop-color:black;stop-opacity:0"/><stop offset="1" style="stop-color:black;stop-opacity:1"/></linearGradient><linearGradient id="_Linear11" x1="0" y1="0" x2="1" y2="0" gradientUnits="userSpaceOnUse" gradientTransform="matrix(41.0498,-322.292,322.292,41.0498,2127.24,1742.01)"><stop offset="0" style="stop-color:rgb(254,141,80);stop-opacity:0"/><stop offset="1" style="stop-color:rgb(254,141,80);stop-opacity:1"/></linearGradient><linearGradient id="_Linear12" x1="0" y1="0" x2="1" y2="0" gradientUnits="userSpaceOnUse" gradientTransform="matrix(-171.269,95.3798,-95.3798,-171.269,1000.44,244.283)"><stop offset="0" style="stop-color:rgb(254,141,80);stop-opacity:0"/><stop offset="1" style="stop-color:rgb(254,141,80);stop-opacity:1"/></linearGradient><linearGradient id="_Linear13" x1="0" y1="0" x2="1" y2="0" gradientUnits="userSpaceOnUse" gradientTransform="matrix(10.0705,40.7243,-40.7243,10.0705,987.699,255.298)"><stop offset="0" style="stop-color:rgb(254,141,80);stop-opacity:0"/><stop offset="1" style="stop-color:rgb(254,141,80);stop-opacity:1"/></linearGradient><linearGradient id="_Linear14" x1="0" y1="0" x2="1" y2="0" gradientUnits="userSpaceOnUse" gradientTransform="matrix(371.913,1754.42,1754.42,-371.913,2459.34,1716.39)"><stop offset="0" style="stop-color:rgb(159,159,233);stop-opacity:1"/><stop offset="1" style="stop-color:rgb(23,23,240);stop-opacity:1"/></linearGradient><linearGradient id="_Linear15" x1="0" y1="0" x2="1" y2="0" gradientUnits="userSpaceOnUse" gradientTransform="matrix(-5.16851,-108.962,109.197,-8.25966,1965.54,1351.05)"><stop offset="0" style="stop-color:black;stop-opacity:0"/><stop offset="1" style="stop-color:black;stop-opacity:1"/></linearGradient></defs></svg>