<svg xmlns="http://www.w3.org/2000/svg" viewBox="0 0 1223.43 364.12"><g id="Layer_2" data-name="Layer 2"><g id="Layer_1-2" data-name="Layer 1"><rect y="0.29" width="54.35" height="363.83"/><rect x="156.37" y="-156.37" width="54.92" height="367.67" transform="translate(156.37 211.3) rotate(-90)"/><rect x="156.37" y="-31.68" width="54.92" height="367.67" transform="translate(31.68 335.98) rotate(-90)"/><rect x="99.78" y="204.42" width="54.92" height="159.7"/><rect x="312.74" y="204.42" width="54.92" height="159.7"/><rect x="206.26" y="224.8" width="54.92" height="118.93"/><rect x="312.74" y="11.44" width="54.92" height="168.17"/><path d="M459.81,149.71V54.15h31q17.6,0,22.94,1.43a25.13,25.13,0,0,1,13.76,9.36Q533,72.14,533,83.55c0,5.86-1.07,10.8-3.2,14.79a26.08,26.08,0,0,1-8.11,9.42,27.68,27.68,0,0,1-10,4.53q-6.9,1.38-20,1.37H479.1v36.05ZM479.1,70.32V97.43h10.56q11.41,0,15.25-1.5a12.61,12.61,0,0,0,6-4.69,12.83,12.83,0,0,0,2.19-7.43,12.32,12.32,0,0,0-3.07-8.61A13.33,13.33,0,0,0,502.31,71q-3.46-.66-13.89-.65Zm65.84,32.2q0-14.61,4.36-24.51a45,45,0,0,1,8.9-13.1,37.27,37.27,0,0,1,12.35-8.61,52.5,52.5,0,0,1,20.6-3.78q21.12,0,33.8,13.1t12.68,36.44q0,23.14-12.58,36.21t-33.64,13.07q-21.31,0-33.89-13T544.94,102.52Zm19.88-.66q0,16.23,7.49,24.61a25.77,25.77,0,0,0,38,.07q7.4-8.31,7.4-24.94,0-16.42-7.2-24.51T591.35,69q-11.94,0-19.23,8.18T564.82,101.86Zm87.93,47.85V54.15h40.61q15.32,0,22.26,2.58a21.88,21.88,0,0,1,11.11,9.15,27.55,27.55,0,0,1,4.17,15.06q0,10.75-6.32,17.76t-18.9,8.84a45.06,45.06,0,0,1,10.33,8q4.07,4.38,11,15.52l11.67,18.64H715.59l-14-20.79q-7.44-11.16-10.17-14a14.94,14.94,0,0,0-5.8-4c-2-.71-5.28-1.07-9.72-1.07H672v39.89ZM672,94.56h14.28q13.88,0,17.34-1.17a10.43,10.43,0,0,0,5.41-4A12.46,12.46,0,0,0,711,82.18a11.49,11.49,0,0,0-2.57-7.79,11.81,11.81,0,0,0-7.27-3.75q-2.34-.33-14.08-.32H672Zm98.56,55.15V70.32H742.25V54.15h75.93V70.32H789.9v79.39Zm60.16,0V54.15h65.51V70.32H850.06V92.93H890V109.1H850.06v40.61Zm77.51-47.19q0-14.61,4.36-24.51a45,45,0,0,1,8.9-13.1,37.27,37.27,0,0,1,12.35-8.61,52.5,52.5,0,0,1,20.6-3.78q21.12,0,33.8,13.1T1001,102.06q0,23.14-12.58,36.21t-33.64,13.07q-21.32,0-33.89-13T908.27,102.52Zm19.88-.66q0,16.23,7.49,24.61a25.77,25.77,0,0,0,38,.07q7.41-8.31,7.4-24.94,0-16.42-7.2-24.51T954.68,69q-11.92,0-19.23,8.18T928.15,101.86Zm88.39,47.85V54.93h19.29v78.68h48v16.1Zm80.43,0V54.15h19.3v95.56Zm33.77-47.19q0-14.61,4.36-24.51a45,45,0,0,1,8.9-13.1,37.27,37.27,0,0,1,12.35-8.61,52.5,52.5,0,0,1,20.6-3.78q21.12,0,33.8,13.1t12.68,36.44q0,23.14-12.58,36.21t-33.64,13.07q-21.32,0-33.89-13T1130.74,102.52Zm19.88-.66q0,16.23,7.49,24.61a25.77,25.77,0,0,0,38,.07q7.39-8.31,7.4-24.94,0-16.42-7.2-24.51T1177.15,69q-11.93,0-19.23,8.18T1150.62,101.86Zm-691.07,208V214.34h28.87l17.34,65.19,17.14-65.19h29V309.9H533.92V234.68L515,309.9H496.38l-18.91-75.22V309.9Zm111.46,0V214.34h70.85v16.17H590.3v21.18h48v16.1h-48v26h53.39v16.1Zm88.45,0V214.34h19.3V309.9Zm32.79-31.09L711,277q1.69,9.45,6.88,13.88t14,4.43q9.33,0,14-3.94t4.72-9.22a8.71,8.71,0,0,0-2-5.77c-1.33-1.59-3.64-3-6.95-4.14q-3.39-1.17-15.44-4.17-15.53-3.85-21.78-9.46a24.86,24.86,0,0,1-8.8-19.22,24.57,24.57,0,0,1,4.14-13.66A25.94,25.94,0,0,1,711.77,216q7.79-3.33,18.81-3.32,18,0,27.08,7.88t9.55,21.06l-19.29.84q-1.24-7.37-5.32-10.59t-12.22-3.23q-8.4,0-13.16,3.46a7,7,0,0,0-3.07,5.93,7.33,7.33,0,0,0,2.87,5.8q3.65,3.07,17.73,6.39t20.83,6.88a26.93,26.93,0,0,1,10.56,9.71q3.81,6.16,3.81,15.22a28.13,28.13,0,0,1-4.56,15.38,27.38,27.38,0,0,1-12.91,10.66q-8.34,3.48-20.79,3.49-18.13,0-27.84-8.38T692.25,278.81ZM807.69,309.9V230.51H779.34V214.34h75.93v16.17H827V309.9Zm60,0V214.34h70.86v16.17H887v21.18h48v16.1H887v26H940.4v16.1Zm89.11,0V214.34h40.61q15.31,0,22.26,2.58a22,22,0,0,1,11.11,9.16,27.55,27.55,0,0,1,4.17,15.06q0,10.76-6.32,17.76t-18.9,8.83a45.08,45.08,0,0,1,10.33,8q4.06,4.37,11,15.51l11.67,18.64h-23.07l-13.95-20.79q-7.44-11.14-10.17-14.05a14.8,14.8,0,0,0-5.8-4c-2-.72-5.28-1.08-9.72-1.08h-3.91V309.9Zm19.29-55.14H990.4q13.88,0,17.34-1.17a10.44,10.44,0,0,0,5.41-4.05,12.46,12.46,0,0,0,2-7.17,11.5,11.5,0,0,0-2.57-7.79,11.85,11.85,0,0,0-7.27-3.74q-2.34-.33-14.08-.33H976.12Z"/></g></g></svg>