<?xml version="1.0" encoding="UTF-8" standalone="no"?><!DOCTYPE svg PUBLIC "-//W3C//DTD SVG 1.1//EN" "http://www.w3.org/Graphics/SVG/1.1/DTD/svg11.dtd"><svg width="4000px" height="2500px" version="1.1" xmlns="http://www.w3.org/2000/svg" xmlns:xlink="http://www.w3.org/1999/xlink" xml:space="preserve" xmlns:serif="http://www.serif.com/" style="fill-rule:evenodd;clip-rule:evenodd;stroke-linejoin:round;stroke-miterlimit:2;"><g transform="matrix(1.63876,0,0,1.63876,-1309.64,-843.334)"><g transform="matrix(1.0657,0,0,1,4.36475,-64.0588)"><path d="M1107.41,2053.61C1093.23,2053.61 1079.77,2046.99 1070.57,2035.49C1061.37,2023.99 1057.37,2008.77 1059.61,1993.85C1065.18,1957.67 1077.31,1921.62 1087.42,1890.61C1153.91,1686.74 1364.27,1508.99 1567.32,1447.34C1664.77,1417.75 1778.16,1407.11 1870.16,1363.98C2200.51,1209.09 2263.35,837.541 2617.64,697.202C2695.69,666.283 2810.36,648.852 2883.03,646C2891.4,645.764 2899.5,649.143 2905.5,655.371C2911.51,661.598 2914.89,670.145 2914.89,679.071C2914.92,891.964 2914.92,2053.61 2914.92,2053.61L1107.41,2053.61Z" style="fill:rgb(208,212,255);fill-opacity:0.59;"/></g><g transform="matrix(0.999677,-0.025427,0.025427,0.999677,-31.6563,34.3184)"><path d="M1799.42,1158.14C1614.07,1218.33 1480.27,1378.48 1325.55,1490.29C1253.06,1542.68 1159.75,1596.67 1071.92,1617.57C1030.95,1627.32 985.876,1619.43 945.92,1609.54C780.544,1568.61 808.791,1374.21 873.185,1254.4C930.009,1148.68 1022.24,1068.75 1127.6,1012.77C1213.81,966.971 1309.15,930.503 1405.75,913.91C1519.94,894.295 1795.26,879.846 1841.23,1029.38C1853.42,1069.02 1829.81,1118.7 1828.8,1159.16" style="fill:rgb(208,212,255);fill-opacity:0.59;"/></g><g transform="matrix(1,0,0,1,216.126,-31.5565)"><g><g transform="matrix(1.28953,0,0,1.28953,-1046.05,479.851)"><path d="M1937.6,510.024C1937.6,506.078 1934.4,502.874 1930.45,502.874L1477.34,502.874C1473.4,502.874 1470.19,506.078 1470.19,510.024L1470.19,645.521C1470.19,649.468 1473.4,652.671 1477.34,652.671L1930.45,652.671C1934.4,652.671 1937.6,649.468 1937.6,645.521L1937.6,510.024Z" style="fill:rgb(246,246,246);"/></g><g transform="matrix(1.28953,0,0,1.28953,-1046.05,479.851)"><path d="M1470.19,513.654L1937.6,513.654L1937.6,510.024C1937.6,506.078 1934.4,502.874 1930.45,502.874L1477.34,502.874C1473.4,502.874 1470.19,506.078 1470.19,510.024L1470.19,513.654Z" style="fill:rgb(22,26,238);"/></g></g><g transform="matrix(-1.85883,4.37885e-16,0,1.85883,5188.04,932.449)"><g transform="matrix(0.531953,0,0,0.531953,811.843,-119.412)"><path d="M2311.68,506.807C2313.11,507.261 2314.53,507.774 2315.96,508.342C2335.01,515.964 2351.49,533.128 2369.85,540.19C2383.43,545.411 2396.16,550.939 2411.09,549.581C2443.83,546.605 2472.87,511.891 2508.68,514.875C2553.24,518.588 2580.44,570.211 2627.5,565.505C2669.71,561.284 2692.49,494.98 2740.6,500.993C2776.97,505.539 2782.61,551.457 2810.42,569.997C2824.98,579.707 2832.64,560.461 2838.18,551.215C2841.04,546.451 2844.53,539.261 2847.41,532.143L2847.41,585.93L2311.68,585.93L2311.68,506.807Z" style="fill:rgb(171,154,211);fill-opacity:0.71;"/></g><g transform="matrix(0.531953,0,0,0.531953,811.843,-119.412)"><path d="M2847.41,496.678L2847.41,585.93L2311.68,585.93L2311.68,539.999C2314.69,535.048 2336.28,514.127 2346.55,508.678C2373.82,494.215 2393.49,500.309 2410.53,521.61C2424.16,538.642 2449.31,578.105 2476.55,571.295C2488.12,568.404 2499.94,548.772 2509.22,541.348C2532.36,522.835 2541.91,505.645 2569.83,498.664C2603.81,490.168 2627.99,558.193 2655.55,571.976C2657.66,573.03 2678.81,554.22 2684.14,551.557C2694.6,546.327 2710.21,578.034 2730.42,571.295C2753.03,563.759 2760.16,524.247 2772.87,520.39C2784.48,516.866 2796.89,543.272 2806.65,548.154C2818.87,554.265 2838.49,510.281 2842.72,503.234C2844.18,500.811 2845.74,498.642 2847.41,496.678Z" style="fill:rgb(42,51,127);fill-opacity:0.71;"/></g><g transform="matrix(0.531953,0,0,0.531953,811.843,-119.412)"><path d="M2847.41,496.678L2847.41,585.93L2311.68,585.93L2311.68,539.999C2314.69,535.048 2336.28,514.127 2346.55,508.678C2373.82,494.215 2393.49,500.309 2410.53,521.61C2424.16,538.642 2449.31,578.105 2476.55,571.295C2488.12,568.404 2499.94,548.772 2509.22,541.348C2532.36,522.835 2541.91,505.645 2569.83,498.664C2603.81,490.168 2627.99,558.193 2655.55,571.976C2657.66,573.03 2678.81,554.22 2684.14,551.557C2694.6,546.327 2710.21,578.034 2730.42,571.295C2753.03,563.759 2760.16,524.247 2772.87,520.39C2784.48,516.866 2796.89,543.272 2806.65,548.154C2818.87,554.265 2838.49,510.281 2842.72,503.234C2844.18,500.811 2845.74,498.642 2847.41,496.678Z" style="fill:rgb(114,124,245);fill-opacity:0.71;"/></g></g><g><g transform="matrix(1.28953,0,0,1.28953,-1046.05,705.823)"><path d="M1937.6,510.024C1937.6,506.078 1934.4,502.874 1930.45,502.874L1477.34,502.874C1473.4,502.874 1470.19,506.078 1470.19,510.024L1470.19,645.521C1470.19,649.468 1473.4,652.671 1477.34,652.671L1930.45,652.671C1934.4,652.671 1937.6,649.468 1937.6,645.521L1937.6,510.024Z" style="fill:rgb(246,246,246);"/></g><g transform="matrix(1.28953,0,0,1.28953,-1046.05,705.823)"><path d="M1470.19,513.654L1937.6,513.654L1937.6,510.024C1937.6,506.078 1934.4,502.874 1930.45,502.874L1477.34,502.874C1473.4,502.874 1470.19,506.078 1470.19,510.024L1470.19,513.654Z" style="fill:rgb(22,26,238);"/></g></g><g transform="matrix(-1.0068,2.37172e-16,0,1.0068,3745.01,920.698)"><path d="M2311.68,506.807C2313.11,507.261 2314.53,507.774 2315.96,508.342C2335.01,515.964 2351.49,533.128 2369.85,540.19C2383.43,545.411 2401.32,485.592 2416.25,484.235C2448.99,481.258 2453.87,559.546 2483.27,538.881C2553.44,489.551 2580.44,570.211 2627.5,565.505C2669.71,561.284 2692.49,533.443 2740.6,539.456C2776.97,544.003 2782.61,551.457 2810.42,569.997C2824.98,579.707 2832.64,560.461 2838.18,551.215C2841.04,546.451 2844.53,539.261 2847.41,532.143L2847.41,585.93L2311.68,585.93L2311.68,506.807Z" style="fill:rgb(151,129,204);fill-opacity:0.76;"/></g><g transform="matrix(-1.0068,2.37172e-16,0,1.0068,3745.55,920.698)"><path d="M2847.41,519.638L2847.41,585.93L2311.68,585.93L2311.68,564.313C2314.69,559.363 2334.5,525.046 2344.78,519.597C2372.04,505.134 2391.71,511.228 2408.75,532.529C2422.38,549.561 2449.31,578.105 2476.55,571.295C2488.12,568.404 2499.94,548.772 2509.22,541.348C2532.36,522.835 2539.41,573.812 2563.79,558.513C2603.68,533.48 2627.99,558.193 2655.55,571.976C2657.66,573.03 2681.71,502.669 2692.41,496.559C2709.39,486.869 2710.85,562.285 2731.07,555.546C2753.67,548.011 2759.26,516.13 2771.97,512.273C2783.58,508.749 2802.61,560.635 2813.47,559.461C2827.39,557.955 2838.49,533.242 2842.72,526.194C2844.18,523.771 2845.74,521.603 2847.41,519.638Z" style="fill:rgb(114,124,245);fill-opacity:0.76;"/></g><g transform="matrix(1,0,0,1,-13.18,391.201)"><g transform="matrix(1,0,0,1,-25.7951,-393.717)"><path d="M1470.28,795.501C1470.28,786.864 1463.27,779.851 1454.63,779.851L879.83,779.851C871.192,779.851 864.18,786.864 864.18,795.501L864.18,1080.42C864.18,1089.06 871.192,1096.07 879.83,1096.07L1454.63,1096.07C1463.27,1096.07 1470.28,1089.06 1470.28,1080.42L1470.28,795.501Z" style="fill:rgb(246,246,246);"/></g><g transform="matrix(1,0,0,1,-25.7951,-393.717)"><path d="M864.18,801.168L1470.28,801.168L1470.28,795.501C1470.28,786.864 1463.27,779.851 1454.63,779.851L879.83,779.851C871.192,779.851 864.18,786.864 864.18,795.501L864.18,801.168Z" style="fill:rgb(22,26,238);"/></g><g><g transform="matrix(0.876747,0,0,0.876747,157.43,-295.484)"><circle cx="1402.32" cy="789.983" r="3.346" style="fill:white;"/></g><g transform="matrix(0.876747,0,0,0.876747,175.746,-295.484)"><circle cx="1402.32" cy="789.983" r="3.346" style="fill:white;"/></g><g transform="matrix(0.876747,0,0,0.876747,194.061,-295.484)"><circle cx="1402.32" cy="789.983" r="3.346" style="fill:white;"/></g></g><g transform="matrix(1,0,0,1,-24.138,-402.043)"><path d="M931.253,935.14C945.579,911.015 968.179,891.681 990.52,875.407C1001.51,867.402 1020.53,856.813 1034.26,862.654C1046.86,868.013 1051.91,883.789 1055.02,895.899C1058.72,910.288 1063.36,924.455 1065.09,939.295C1066.39,950.532 1066.49,961.784 1070.01,972.669C1074.98,988.054 1083.89,1006.84 1103.18,1005.05C1121.59,1003.34 1127.96,981.408 1136.01,968.357C1139.23,963.146 1145.06,953.437 1152.06,953.057C1169.76,952.094 1177.91,975.849 1187.97,986.13C1192.73,990.992 1201.87,996.862 1208.37,992.276C1238.8,970.805 1252.52,932.562 1276.13,905.207C1285.94,893.835 1299.51,877.749 1316.52,879.436C1344.76,882.24 1359.33,909.258 1373.54,930.315C1378.43,937.561 1384.18,952.463 1393.76,954.522C1397.86,955.4 1401.44,953.97 1404.59,951.289L1404.59,1038.88L931.253,1038.88L931.253,935.14Z" style="fill:rgb(171,154,211);fill-opacity:0.79;"/></g><g transform="matrix(1,0,0,1,-24.138,-402.043)"><path d="M931.253,865.226L931.253,1038.88L1404.59,1038.88L1404.59,1009.12C1387.47,1009.64 1381.43,977.069 1372.68,964.994C1370.29,961.69 1365.75,951.196 1360.83,950.72C1347.34,949.415 1342.71,978.937 1336.61,987.575C1333.24,992.346 1326.58,1000.78 1319.95,996.227C1304.23,985.456 1287.4,929.153 1280.1,911.016C1274.81,897.901 1257.81,880.943 1241.28,879.94C1194.65,877.11 1188.14,932.11 1171.29,964.762C1166.35,974.333 1158.6,991.114 1147.5,995.157C1126.71,1002.73 1117.44,956.324 1114.4,943.41C1113.22,938.372 1111.89,926.095 1104.56,925.738C1084.12,924.742 1082.05,976.152 1065.27,983.733C1051.88,989.787 1038.51,965.164 1034.8,956.693C1021.34,925.993 1010.56,885.955 982.719,864.324C965.901,851.257 946.185,854.138 931.253,865.226Z" style="fill:rgb(114,124,245);fill-opacity:0.79;"/></g><g transform="matrix(1,0,0,1,6.49566,7.3521)"><path d="M874.923,655.165L874.923,423.936L871.005,423.936L871.005,655.165L870.998,655.165L870.998,659.083L1411.67,659.083L1411.67,655.165L874.923,655.165Z" style="fill:rgb(22,26,238);"/></g></g><g transform="matrix(1.24642,0,0,1.24642,-1183.81,-27.6748)"><path d="M2883.76,1312.88C2883.76,1302.24 2875.12,1293.6 2864.48,1293.6L2165.27,1293.6C2154.63,1293.6 2146,1302.24 2146,1312.88L2146,1564.58C2146,1575.22 2154.63,1583.85 2165.27,1583.85L2864.48,1583.85C2875.12,1583.85 2883.76,1575.22 2883.76,1564.58L2883.76,1312.88Z" style="fill:rgb(246,246,246);"/><g transform="matrix(1,0,0,1,4.75592,-2.70764)"><g transform="matrix(-1.00306,1.81658e-16,0,1.02727,3226.37,1153.23)"><g transform="matrix(0.362155,0,0,0.362155,366.421,-171.694)"><path d="M1867.76,976.822C1867.76,958.305 1852.72,943.271 1834.21,943.271L1400.51,943.271C1381.99,943.271 1366.96,958.305 1366.96,976.822L1366.96,1426.8C1366.96,1445.31 1381.99,1460.35 1400.51,1460.35L1834.21,1460.35C1852.72,1460.35 1867.76,1445.31 1867.76,1426.8L1867.76,976.822Z" style="fill:rgb(114,124,245);"/></g><g transform="matrix(0.498488,0,0,0.498488,632.789,-102.61)"><rect x="480.738" y="881.371" width="17.384" height="17.384" style="fill:white;"/></g><g transform="matrix(0.498488,0,0,0.498488,648.563,-102.61)"><rect x="480.738" y="881.371" width="17.384" height="17.384" style="fill:rgb(22,26,238);"/></g><g transform="matrix(-0.0787903,0.294049,-0.294049,-0.0787903,1439.84,-114.966)"><path d="M1611.07,982.347C1741.64,982.347 1847.65,1088.36 1847.65,1218.93C1847.65,1349.5 1741.64,1455.51 1611.07,1455.51C1480.5,1455.51 1374.49,1349.5 1374.49,1218.93C1374.49,1088.36 1480.5,982.347 1611.07,982.347ZM1611.07,1085.36C1684.79,1085.36 1744.64,1145.21 1744.64,1218.93C1744.64,1292.64 1684.79,1352.49 1611.07,1352.49C1537.35,1352.49 1477.51,1292.64 1477.51,1218.93C1477.51,1145.21 1537.35,1085.36 1611.07,1085.36Z" style="fill:rgb(22,26,238);"/></g><g transform="matrix(-0.082708,0.30867,-0.30867,-0.082708,1464.8,-132.202)"><path d="M1413.32,1086.07C1453.09,1028.74 1540.76,989.979 1611.97,989.979C1709.19,989.979 1794.33,1056.9 1825.91,1143.23L1726.97,1203.52C1714.01,1147.02 1663.37,1104.81 1602.94,1104.81C1556.53,1104.81 1525.96,1128.36 1503.74,1165.53L1413.32,1086.07Z" style="fill:white;"/></g></g><g><g transform="matrix(1,0,0,1,-9.1699,0)"><rect x="2192.65" y="1544.19" width="10.885" height="10.885" style="fill:rgb(114,124,245);"/></g><g transform="matrix(4.50192,0,0,1,-7665.54,0)"><rect x="2192.65" y="1544.19" width="10.885" height="10.885" style="fill:rgb(114,124,245);"/></g></g><g transform="matrix(1,0,0,1,105.097,0)"><g transform="matrix(1,0,0,1,-9.1699,0)"><rect x="2192.65" y="1544.19" width="10.885" height="10.885" style="fill:rgb(114,124,245);"/></g><g transform="matrix(4.50192,0,0,1,-7665.54,0)"><rect x="2192.65" y="1544.19" width="10.885" height="10.885" style="fill:rgb(114,124,245);"/></g></g></g><g transform="matrix(1,0,0,1,240.327,-2.70764)"><g transform="matrix(-1.00306,1.81658e-16,0,1.02727,3226.37,1153.23)"><g transform="matrix(0.362155,0,0,0.362155,366.421,-171.694)"><path d="M1867.76,976.822C1867.76,958.305 1852.72,943.271 1834.21,943.271L1400.51,943.271C1381.99,943.271 1366.96,958.305 1366.96,976.822L1366.96,1426.8C1366.96,1445.31 1381.99,1460.35 1400.51,1460.35L1834.21,1460.35C1852.72,1460.35 1867.76,1445.31 1867.76,1426.8L1867.76,976.822Z" style="fill:rgb(114,124,245);"/></g><g transform="matrix(0.498488,0,0,0.498488,632.789,-102.61)"><rect x="480.738" y="881.371" width="17.384" height="17.384" style="fill:white;"/></g><g transform="matrix(0.498488,0,0,0.498488,648.563,-102.61)"><rect x="480.738" y="881.371" width="17.384" height="17.384" style="fill:rgb(84,186,251);"/></g><g transform="matrix(0.220109,-0.214923,0.213025,0.213025,342.154,350.442)"><path d="M1611.07,982.347C1741.64,982.347 1847.65,1088.36 1847.65,1218.93C1847.65,1349.5 1741.64,1455.51 1611.07,1455.51C1480.5,1455.51 1374.49,1349.5 1374.49,1218.93C1374.49,1088.36 1480.5,982.347 1611.07,982.347ZM1611.07,1085.36C1684.79,1085.36 1744.64,1145.21 1744.64,1218.93C1744.64,1292.64 1684.79,1352.49 1611.07,1352.49C1537.35,1352.49 1477.51,1292.64 1477.51,1218.93C1477.51,1145.21 1537.35,1085.36 1611.07,1085.36Z" style="fill:rgb(84,186,251);"/></g><g transform="matrix(0.231054,-0.225609,0.223617,0.223618,311.696,353.008)"><path d="M1413.32,1086.07C1453.09,1028.74 1540.76,989.979 1611.97,989.979C1709.19,989.979 1794.33,1056.9 1825.91,1143.23L1726.97,1203.52C1714.01,1147.02 1663.37,1104.81 1602.94,1104.81C1556.53,1104.81 1525.96,1128.36 1503.74,1165.53L1413.32,1086.07Z" style="fill:white;"/></g></g><g><g transform="matrix(1,0,0,1,-9.1699,0)"><rect x="2192.65" y="1544.19" width="10.885" height="10.885" style="fill:rgb(114,124,245);"/></g><g transform="matrix(4.50192,0,0,1,-7665.54,0)"><rect x="2192.65" y="1544.19" width="10.885" height="10.885" style="fill:rgb(166,220,255);"/></g></g><g transform="matrix(1,0,0,1,105.097,0)"><g transform="matrix(1,0,0,1,-9.1699,0)"><rect x="2192.65" y="1544.19" width="10.885" height="10.885" style="fill:rgb(166,220,255);"/></g><g transform="matrix(4.50192,0,0,1,-7665.54,0)"><rect x="2192.65" y="1544.19" width="10.885" height="10.885" style="fill:rgb(166,220,255);"/></g></g></g><g transform="matrix(1,0,0,1,475.899,-2.70764)"><g transform="matrix(-1.00306,1.81658e-16,0,1.02727,3226.37,1153.23)"><g transform="matrix(0.362155,0,0,0.362155,366.421,-171.694)"><path d="M1867.76,976.822C1867.76,958.305 1852.72,943.271 1834.21,943.271L1400.51,943.271C1381.99,943.271 1366.96,958.305 1366.96,976.822L1366.96,1426.8C1366.96,1445.31 1381.99,1460.35 1400.51,1460.35L1834.21,1460.35C1852.72,1460.35 1867.76,1445.31 1867.76,1426.8L1867.76,976.822Z" style="fill:rgb(114,124,245);"/></g><g transform="matrix(0.498488,0,0,0.498488,632.789,-102.61)"><rect x="480.738" y="881.371" width="17.384" height="17.384" style="fill:white;"/></g><g transform="matrix(0.498488,0,0,0.498488,648.563,-102.61)"><rect x="480.738" y="881.371" width="17.384" height="17.384" style="fill:rgb(22,26,238);"/></g><g transform="matrix(-0.273967,0.144296,-0.141548,-0.263711,1568.98,350.99)"><path d="M1611.07,982.347C1741.64,982.347 1847.65,1088.36 1847.65,1218.93C1847.65,1349.5 1741.64,1455.51 1611.07,1455.51C1480.5,1455.51 1374.49,1349.5 1374.49,1218.93C1374.49,1088.36 1480.5,982.347 1611.07,982.347ZM1611.07,1085.36C1684.79,1085.36 1744.64,1145.21 1744.64,1218.93C1744.64,1292.64 1684.79,1352.49 1611.07,1352.49C1537.35,1352.49 1477.51,1292.64 1477.51,1218.93C1477.51,1145.21 1537.35,1085.36 1611.07,1085.36Z" style="fill:rgb(22,26,238);"/></g><g transform="matrix(-0.287589,0.151471,-0.148586,-0.276823,1598.91,357.057)"><path d="M1413.32,1086.07C1453.09,1028.74 1540.76,989.979 1611.97,989.979C1709.19,989.979 1794.33,1056.9 1825.91,1143.23L1726.97,1203.52C1714.01,1147.02 1663.37,1104.81 1602.94,1104.81C1556.53,1104.81 1525.96,1128.36 1503.74,1165.53L1413.32,1086.07Z" style="fill:white;"/></g></g><g><g transform="matrix(1,0,0,1,-9.1699,0)"><rect x="2192.65" y="1544.19" width="10.885" height="10.885" style="fill:rgb(166,220,255);"/></g><g transform="matrix(4.50192,0,0,1,-7665.54,0)"><rect x="2192.65" y="1544.19" width="10.885" height="10.885" style="fill:rgb(166,220,255);"/></g></g><g transform="matrix(1,0,0,1,105.097,0)"><g transform="matrix(1,0,0,1,-9.1699,0)"><rect x="2192.65" y="1544.19" width="10.885" height="10.885" style="fill:rgb(114,124,245);"/></g><g transform="matrix(4.50192,0,0,1,-7665.54,0)"><rect x="2192.65" y="1544.19" width="10.885" height="10.885" style="fill:rgb(114,124,245);"/></g></g></g></g><g transform="matrix(-0.888106,0,0,0.888106,3916.71,840.563)"><g transform="matrix(0.575446,0.332234,-0.332234,0.575446,1658.81,-1270.79)"><path d="M2606.24,1562.83L2781.9,1664.24L2781.9,1867.07L2606.24,1968.49L2430.59,1867.07L2430.59,1664.24L2606.24,1562.83Z" style="fill:rgb(114,124,245);"/></g><g transform="matrix(1.16864,0,0,1.16864,-434.657,-1149.86)"><path d="M2620.14,1504.86C2620.14,1494.85 2612.01,1486.72 2602,1486.72L2542.03,1486.72C2532.02,1486.72 2523.89,1494.85 2523.89,1504.86L2523.89,1541.13C2523.89,1551.14 2532.02,1559.26 2542.03,1559.26L2602,1559.26C2612.01,1559.26 2620.14,1551.14 2620.14,1541.13L2620.14,1504.86Z" style="fill:white;"/></g><g transform="matrix(1,0,0,1,3.41936,-888.986)"><path d="M2612.51,1511.63C2612.51,1508.21 2609.73,1505.43 2606.31,1505.43L2531.94,1505.43C2528.52,1505.43 2525.74,1508.21 2525.74,1511.63L2525.74,1524.03C2525.74,1527.45 2528.52,1530.23 2531.94,1530.23L2606.31,1530.23C2609.73,1530.23 2612.51,1527.45 2612.51,1524.03L2612.51,1511.63Z" style="fill:rgb(114,124,245);"/></g><g transform="matrix(1,0,0,1,4.11964,-885.924)"><circle cx="2540.84" cy="1513.86" r="5.431" style="fill:white;"/></g><g transform="matrix(1,0,0,1,22.319,-885.924)"><circle cx="2540.84" cy="1513.86" r="5.431" style="fill:white;"/></g><g transform="matrix(1,0,0,1,40.5184,-885.924)"><circle cx="2540.84" cy="1513.86" r="5.431" style="fill:white;"/></g><g transform="matrix(1,0,0,1,58.7177,-885.924)"><circle cx="2540.84" cy="1513.86" r="5.431" style="fill:white;"/></g><g transform="matrix(0.813967,0,0,1,481.752,-888.136)"><path d="M2613.57,1470.84L2613.57,1444.66C2613.57,1432.59 2601.54,1422.79 2586.71,1422.79L2546.57,1422.79C2531.74,1422.79 2519.7,1432.59 2519.7,1444.66L2519.7,1470.84L2533.28,1470.84L2533.28,1444.66C2533.28,1438.69 2539.23,1433.84 2546.57,1433.84L2586.71,1433.84C2594.05,1433.84 2600,1438.69 2600,1444.66L2600,1470.84L2613.57,1470.84Z" style="fill:white;"/></g></g><g transform="matrix(-0.888106,0,0,0.888106,4166.11,840.863)"><g transform="matrix(0.575446,0.332234,-0.332234,0.575446,1658.81,-1270.79)"><path d="M2606.24,1562.83L2781.9,1664.24L2781.9,1867.07L2606.24,1968.49L2430.59,1867.07L2430.59,1664.24L2606.24,1562.83Z" style="fill:rgb(114,124,245);"/></g><g><g transform="matrix(1.02544,0,0,0.744743,-74.5703,-683.237)"><path d="M2632.53,1648.92C2632.53,1645.17 2630.32,1642.14 2627.6,1642.14L2535.02,1642.14C2532.3,1642.14 2530.09,1645.17 2530.09,1648.92L2530.09,1820.34C2530.09,1824.09 2532.3,1827.12 2535.02,1827.12L2627.6,1827.12C2630.32,1827.12 2632.53,1824.09 2632.53,1820.34L2632.53,1648.92ZM2539.94,1655.7L2539.94,1813.56L2622.67,1813.56L2622.67,1655.7L2539.94,1655.7Z" style="fill:white;"/></g><g transform="matrix(0.914439,0,0,0.914439,214.109,-980.418)"><path d="M2549.62,1705.87L2608.7,1705.75L2608.68,1694.7L2549.6,1694.82L2549.62,1705.87Z" style="fill:white;"/></g><g transform="matrix(0.914439,0,0,0.914439,214.109,-958.5)"><path d="M2549.62,1705.87L2608.7,1705.75L2608.68,1694.7L2549.6,1694.82L2549.62,1705.87Z" style="fill:white;"/></g><g transform="matrix(0.914439,0,0,0.914439,214.109,-936.582)"><path d="M2549.62,1705.87L2608.7,1705.75L2608.68,1694.7L2549.6,1694.82L2549.62,1705.87Z" style="fill:white;"/></g><g transform="matrix(0.914439,0,0,0.914439,214.109,-914.664)"><path d="M2549.62,1705.87L2608.7,1705.75L2608.68,1694.7L2549.6,1694.82L2549.62,1705.87Z" style="fill:white;"/></g></g></g><g transform="matrix(-0.901714,2.12417e-16,0,0.901714,5469.26,677.275)"><g transform="matrix(1,0,0,1.04422,1456.19,-517.295)"><path d="M1891.07,624.164C1891.07,610.523 1879.5,599.449 1865.26,599.449L1540.03,599.449C1525.79,599.449 1514.22,610.523 1514.22,624.164L1514.22,1012.71C1514.22,1026.35 1525.79,1037.42 1540.03,1037.42L1865.26,1037.42C1879.5,1037.42 1891.07,1026.35 1891.07,1012.71L1891.07,624.164Z" style="fill:rgb(235,235,235);"/></g><g transform="matrix(0.757522,0,0,0.757522,2358.89,17.0047)"><g transform="matrix(0.894528,0,0,0.582248,112.375,239.991)"><rect x="856.673" y="558.908" width="179.031" height="12.045" style="fill:white;"/></g><g transform="matrix(0.107854,0,0,1.47645,754.97,-264.399)"><rect x="856.673" y="558.908" width="179.031" height="12.045" style="fill:white;"/></g></g><g transform="matrix(0.757522,0,0,0.757522,2526.59,17.0047)"><g transform="matrix(0.894528,0,0,0.582248,112.375,239.991)"><rect x="856.673" y="558.908" width="179.031" height="12.045" style="fill:white;"/></g><g transform="matrix(0.107854,0,0,1.47645,754.97,-264.399)"><rect x="856.673" y="558.908" width="179.031" height="12.045" style="fill:white;"/></g></g><g transform="matrix(0.757522,0,0,0.757522,2358.89,45.3714)"><g transform="matrix(0.894528,0,0,0.582248,112.375,239.991)"><rect x="856.673" y="558.908" width="179.031" height="12.045" style="fill:white;"/></g><g transform="matrix(0.107854,0,0,1.47645,754.97,-264.399)"><rect x="856.673" y="558.908" width="179.031" height="12.045" style="fill:white;"/></g></g><g transform="matrix(0.757522,0,0,0.757522,2526.59,45.3714)"><g transform="matrix(0.894528,0,0,0.582248,112.375,239.991)"><rect x="856.673" y="558.908" width="179.031" height="12.045" style="fill:white;"/></g><g transform="matrix(0.107854,0,0,1.47645,754.97,-264.399)"><rect x="856.673" y="558.908" width="179.031" height="12.045" style="fill:white;"/></g></g><g transform="matrix(0.757522,0,0,0.757522,2358.89,73.7381)"><g transform="matrix(0.894528,0,0,0.582248,112.375,239.991)"><rect x="856.673" y="558.908" width="179.031" height="12.045" style="fill:white;"/></g><g transform="matrix(0.107854,0,0,1.47645,754.97,-264.399)"><rect x="856.673" y="558.908" width="179.031" height="12.045" style="fill:white;"/></g></g><g transform="matrix(0.757522,0,0,0.757522,2526.59,73.7381)"><g transform="matrix(0.894528,0,0,0.582248,112.375,239.991)"><rect x="856.673" y="558.908" width="179.031" height="12.045" style="fill:white;"/></g><g transform="matrix(0.107854,0,0,1.47645,754.97,-264.399)"><rect x="856.673" y="558.908" width="179.031" height="12.045" style="fill:white;"/></g></g><g transform="matrix(0.757522,0,0,0.757522,2358.89,102.105)"><g transform="matrix(0.894528,0,0,0.582248,112.375,239.991)"><rect x="856.673" y="558.908" width="179.031" height="12.045" style="fill:white;"/></g><g transform="matrix(0.107854,0,0,1.47645,754.97,-264.399)"><rect x="856.673" y="558.908" width="179.031" height="12.045" style="fill:white;"/></g></g><g transform="matrix(0.757522,0,0,0.757522,2526.59,102.105)"><g transform="matrix(0.894528,0,0,0.582248,112.375,239.991)"><rect x="856.673" y="558.908" width="179.031" height="12.045" style="fill:white;"/></g><g transform="matrix(0.107854,0,0,1.47645,754.97,-264.399)"><rect x="856.673" y="558.908" width="179.031" height="12.045" style="fill:white;"/></g></g><g transform="matrix(0.518901,0,0,0.518901,2773.55,-215.469)"><path d="M1060.37,1045.44C1060.37,1035.03 1051.91,1026.58 1041.51,1026.58L448.052,1026.58C437.641,1026.58 429.19,1035.03 429.19,1045.44L429.19,1164.64C429.19,1175.05 437.641,1183.5 448.052,1183.5L1041.51,1183.5C1051.91,1183.5 1060.37,1175.05 1060.37,1164.64L1060.37,1045.44Z" style="fill:white;"/></g><g transform="matrix(0.518901,0,0,0.518901,1817.36,78.6085)"><path d="M2311.68,506.807C2313.11,507.261 2314.53,507.774 2315.96,508.342C2335.01,515.964 2351.49,533.128 2369.85,540.19C2383.43,545.411 2396.16,550.939 2411.09,549.581C2443.83,546.605 2472.87,511.891 2508.68,514.875C2553.24,518.588 2580.44,570.211 2627.5,565.505C2669.71,561.284 2692.49,494.98 2740.6,500.993C2776.97,505.539 2782.61,551.457 2810.42,569.997C2824.98,579.707 2832.64,560.461 2838.18,551.215C2841.04,546.451 2844.53,539.261 2847.41,532.143L2847.41,585.93L2311.68,585.93L2311.68,506.807Z" style="fill:rgb(114,124,245);fill-opacity:0.76;"/></g><g transform="matrix(0.518901,0,0,0.518901,1817.36,78.6085)"><path d="M2847.41,496.678L2847.41,585.93L2311.68,585.93L2311.68,539.999C2314.69,535.048 2336.28,514.127 2346.55,508.678C2373.82,494.215 2393.49,500.309 2410.53,521.61C2424.16,538.642 2449.31,578.105 2476.55,571.295C2488.12,568.404 2499.94,548.772 2509.22,541.348C2532.36,522.835 2541.91,505.645 2569.83,498.664C2603.81,490.168 2627.99,558.193 2655.55,571.976C2657.66,573.03 2678.81,554.22 2684.14,551.557C2694.6,546.327 2710.21,578.034 2730.42,571.295C2753.03,563.759 2760.16,524.247 2772.87,520.39C2784.48,516.866 2796.89,543.272 2806.65,548.154C2818.87,554.265 2838.49,510.281 2842.72,503.234C2844.18,500.811 2845.74,498.642 2847.41,496.678Z" style="fill:rgb(198,188,222);fill-opacity:0.76;"/></g><g transform="matrix(0.86458,0,0,0.86458,2421.86,-16.6289)"><g transform="matrix(0.362155,0,0,0.362155,366.421,-171.694)"><path d="M1867.76,976.822C1867.76,958.305 1852.72,943.271 1834.21,943.271L1400.51,943.271C1381.99,943.271 1366.96,958.305 1366.96,976.822L1366.96,1426.8C1366.96,1445.31 1381.99,1460.35 1400.51,1460.35L1834.21,1460.35C1852.72,1460.35 1867.76,1445.31 1867.76,1426.8L1867.76,976.822Z" style="fill:white;"/></g><g transform="matrix(0.498488,0,0,0.498488,632.789,-102.61)"><rect x="480.738" y="881.371" width="17.384" height="17.384" style="fill:white;"/></g><g transform="matrix(0.498488,0,0,0.498488,648.563,-102.61)"><rect x="480.738" y="881.371" width="17.384" height="17.384" style="fill:rgb(106,117,244);"/></g><g transform="matrix(-0.0787903,0.294049,-0.294049,-0.0787903,1439.84,-114.966)"><path d="M1611.07,982.347C1741.64,982.347 1847.65,1088.36 1847.65,1218.93C1847.65,1349.5 1741.64,1455.51 1611.07,1455.51C1480.5,1455.51 1374.49,1349.5 1374.49,1218.93C1374.49,1088.36 1480.5,982.347 1611.07,982.347ZM1611.07,1085.36C1684.79,1085.36 1744.64,1145.21 1744.64,1218.93C1744.64,1292.64 1684.79,1352.49 1611.07,1352.49C1537.35,1352.49 1477.51,1292.64 1477.51,1218.93C1477.51,1145.21 1537.35,1085.36 1611.07,1085.36Z" style="fill:rgb(106,117,244);"/></g><g transform="matrix(-0.082708,0.30867,-0.30867,-0.082708,1464.8,-132.202)"><path d="M1413.32,1086.07C1453.09,1028.74 1540.76,989.979 1611.97,989.979C1709.19,989.979 1794.33,1056.9 1825.91,1143.23L1726.97,1203.52C1714.01,1147.02 1663.37,1104.81 1602.94,1104.81C1556.53,1104.81 1525.96,1128.36 1503.74,1165.53L1413.32,1086.07Z" style="fill:rgb(198,188,222);"/></g></g><g transform="matrix(0.86458,0,0,0.86458,2249.71,-16.4483)"><g transform="matrix(0.362155,0,0,0.362155,366.421,-171.694)"><path d="M1867.76,976.822C1867.76,958.305 1852.72,943.271 1834.21,943.271L1400.51,943.271C1381.99,943.271 1366.96,958.305 1366.96,976.822L1366.96,1426.8C1366.96,1445.31 1381.99,1460.35 1400.51,1460.35L1834.21,1460.35C1852.72,1460.35 1867.76,1445.31 1867.76,1426.8L1867.76,976.822Z" style="fill:white;"/></g><g transform="matrix(0.498488,0,0,0.498488,632.789,-102.61)"><rect x="480.738" y="881.371" width="17.384" height="17.384" style="fill:white;"/></g><g transform="matrix(0.498488,0,0,0.498488,648.563,-102.61)"><rect x="480.738" y="881.371" width="17.384" height="17.384" style="fill:rgb(106,117,244);"/></g><g transform="matrix(0.263638,-0.152211,0.152211,0.263638,345.921,187.911)"><path d="M1611.07,982.347C1741.64,982.347 1847.65,1088.36 1847.65,1218.93C1847.65,1349.5 1741.64,1455.51 1611.07,1455.51C1480.5,1455.51 1374.49,1349.5 1374.49,1218.93C1374.49,1088.36 1480.5,982.347 1611.07,982.347ZM1611.07,1085.36C1684.79,1085.36 1744.64,1145.21 1744.64,1218.93C1744.64,1292.64 1684.79,1352.49 1611.07,1352.49C1537.35,1352.49 1477.51,1292.64 1477.51,1218.93C1477.51,1145.21 1537.35,1085.36 1611.07,1085.36Z" style="fill:rgb(106,117,244);"/></g><g transform="matrix(0.276746,-0.159779,0.159779,0.276746,316.088,182.453)"><path d="M1413.32,1086.07C1453.09,1028.74 1540.76,989.979 1611.97,989.979C1709.19,989.979 1794.33,1056.9 1825.91,1143.23L1726.97,1203.52C1714.01,1147.02 1663.37,1104.81 1602.94,1104.81C1556.53,1104.81 1525.96,1128.36 1503.74,1165.53L1413.32,1086.07Z" style="fill:rgb(198,188,222);"/></g></g></g><g transform="matrix(1.08356,0,0,1.08356,-434.77,-76.707)"><g transform="matrix(1,0,0,1,390.304,0)"><path d="M1959.07,801.767C1959.07,793.682 1952.51,787.117 1944.42,787.117L1382.74,787.117C1374.66,787.117 1368.09,793.682 1368.09,801.767L1368.09,1194.11C1368.09,1202.2 1374.66,1208.76 1382.74,1208.76L1944.42,1208.76C1952.51,1208.76 1959.07,1202.2 1959.07,1194.11L1959.07,801.767Z" style="fill:rgb(246,246,246);"/></g><g transform="matrix(0.922881,0,0,0.922881,381.914,74.2715)"><path d="M1491.51,792.875L2131.87,792.875L2131.87,788.287C2131.87,779.527 2124.76,772.414 2116,772.414L1507.38,772.414C1498.62,772.414 1491.51,779.527 1491.51,788.287L1491.51,792.875Z" style="fill:rgb(22,26,238);"/></g><g transform="matrix(0.809133,0,0,0.809133,1160.41,157.124)"><circle cx="1402.32" cy="789.983" r="3.346" style="fill:white;"/></g><g transform="matrix(0.809133,0,0,0.809133,1177.31,157.124)"><circle cx="1402.32" cy="789.983" r="3.346" style="fill:white;"/></g><g transform="matrix(0.809133,0,0,0.809133,1194.22,157.124)"><circle cx="1402.32" cy="789.983" r="3.346" style="fill:white;"/></g><g transform="matrix(1.00191,0,0,0.915377,-4.3879,69.3224)"><rect x="1800.12" y="819.191" width="492.422" height="90.057" style="fill:rgb(22,26,238);"/></g><g><path d="M2289.4,925.381L2289.4,1103.51L1835.26,1103.51L1835.26,943.86C1845.19,947.896 1854.88,953.251 1857.05,954.643C1884.84,972.474 1900.29,1001.28 1922.92,1023.99C1933.15,1034.26 1946.78,1044.67 1962.38,1038.82C1994.9,1026.62 2025.07,963.659 2057.87,966.807C2106.43,971.468 2111.27,1019.2 2173.97,1018.59C2232.51,1018.02 2272.85,951.896 2289.4,925.381Z" style="fill:rgb(190,178,218);fill-opacity:0.85;"/><path d="M1835.26,976.45C1843.2,975.44 1850.25,975.018 1854.12,974.801C1931.23,970.47 1957.5,1035.29 2025.46,1040.64C2070.6,1044.2 2109.02,1013.14 2148.82,997.495C2189.51,981.509 2232.44,987.719 2270.71,1005.45C2277.19,1008.44 2283.46,1012.2 2289.4,1016.47L2289.4,1103.51L1835.26,1103.51L1835.26,976.45Z" style="fill:rgb(114,124,245);fill-opacity:0.46;"/><g transform="matrix(0.905699,0,0,0.905699,538.429,148.634)"><path d="M1394.99,1084.65L1394.99,850.714L1391.75,850.714L1391.75,1087.89L1394.99,1087.89L1394.99,1087.89L1946.65,1087.89L1946.65,1084.65L1394.99,1084.65Z" style="fill:rgb(22,26,238);"/></g><g transform="matrix(1,0,0.0494424,1.19058,-29.1943,-151.313)"><rect x="1803.3" y="826.355" width="85.004" height="4.837" style="fill:white;"/></g><g transform="matrix(0.643235,0,0.0494424,1.19058,615.095,-136.044)"><rect x="1803.3" y="826.355" width="85.004" height="4.837" style="fill:white;"/></g><path d="M1903.16,878.458C1903.16,872.506 1898.33,867.674 1892.38,867.674L1826.82,867.674C1820.87,867.674 1816.03,872.506 1816.03,878.458C1816.03,884.409 1820.87,889.241 1826.82,889.241C1826.82,889.241 1892.38,889.241 1892.38,889.241C1898.33,889.241 1903.16,884.409 1903.16,878.458ZM1899.91,878.458C1899.91,882.616 1896.54,885.991 1892.38,885.991L1826.82,885.991C1822.66,885.991 1819.28,882.616 1819.28,878.458C1819.28,874.3 1822.66,870.924 1826.82,870.924C1826.82,870.924 1892.38,870.924 1892.38,870.924C1896.54,870.924 1899.91,874.3 1899.91,878.458Z" style="fill:white;"/><g transform="matrix(1.2813,0,0,1.2813,-519.432,-247.153)"><circle cx="1831.43" cy="878.421" r="4.209" style="fill:white;"/></g><path d="M1847.07,1157.75C1847.07,1151.67 1842.13,1146.74 1836.06,1146.74L1818.29,1146.74C1812.22,1146.74 1807.28,1151.67 1807.28,1157.75C1807.28,1163.82 1812.22,1168.75 1818.29,1168.75L1836.06,1168.75C1842.13,1168.75 1847.07,1163.82 1847.07,1157.75Z" style="fill:rgb(22,26,238);"/><g transform="matrix(1,0,0,1,90.862,0)"><path d="M1847.07,1157.75C1847.07,1151.67 1842.13,1146.74 1836.06,1146.74L1818.29,1146.74C1812.22,1146.74 1807.28,1151.67 1807.28,1157.75C1807.28,1163.82 1812.22,1168.75 1818.29,1168.75L1836.06,1168.75C1842.13,1168.75 1847.07,1163.82 1847.07,1157.75Z" style="fill:rgb(22,26,238);"/></g><g transform="matrix(1,0,0,1,181.724,0)"><path d="M1847.07,1157.75C1847.07,1151.67 1842.13,1146.74 1836.06,1146.74L1818.29,1146.74C1812.22,1146.74 1807.28,1151.67 1807.28,1157.75C1807.28,1163.82 1812.22,1168.75 1818.29,1168.75L1836.06,1168.75C1842.13,1168.75 1847.07,1163.82 1847.07,1157.75Z" style="fill:rgb(22,26,238);"/></g><g transform="matrix(1,0,0,1,272.586,0)"><path d="M1847.07,1157.75C1847.07,1151.67 1842.13,1146.74 1836.06,1146.74L1818.29,1146.74C1812.22,1146.74 1807.28,1151.67 1807.28,1157.75C1807.28,1163.82 1812.22,1168.75 1818.29,1168.75L1836.06,1168.75C1842.13,1168.75 1847.07,1163.82 1847.07,1157.75Z" style="fill:rgb(22,26,238);"/></g><g transform="matrix(1,0,0,1,363.448,0)"><path d="M1847.07,1157.75C1847.07,1151.67 1842.13,1146.74 1836.06,1146.74L1818.29,1146.74C1812.22,1146.74 1807.28,1151.67 1807.28,1157.75C1807.28,1163.82 1812.22,1168.75 1818.29,1168.75L1836.06,1168.75C1842.13,1168.75 1847.07,1163.82 1847.07,1157.75Z" style="fill:rgb(22,26,238);"/></g><g transform="matrix(1,0,0,1,454.31,0)"><path d="M1847.07,1157.75C1847.07,1151.67 1842.13,1146.74 1836.06,1146.74L1818.29,1146.74C1812.22,1146.74 1807.28,1151.67 1807.28,1157.75C1807.28,1163.82 1812.22,1168.75 1818.29,1168.75L1836.06,1168.75C1842.13,1168.75 1847.07,1163.82 1847.07,1157.75Z" style="fill:rgb(22,26,238);"/></g></g></g><g transform="matrix(1.65881,0,0,1.65881,-1050.68,-1393.88)"><g transform="matrix(-0.69724,0,0,0.69724,2845.88,1216.06)"><g transform="matrix(1,0,0,0.470021,96.2125,-177.464)"><path d="M1219.76,679.79C1219.76,668.579 1215.48,659.477 1210.21,659.477L1001.12,659.477C995.856,659.477 991.577,668.579 991.577,679.79L991.577,1087.32C991.577,1098.53 995.856,1107.63 1001.12,1107.63L1210.21,1107.63C1215.48,1107.63 1219.76,1098.53 1219.76,1087.32L1219.76,679.79Z" style="fill:rgb(235,235,235);"/></g><g transform="matrix(0.187832,0,0,0.187832,1026.95,231.102)"><path d="M1357.14,286.304C1357.14,275.7 1348.53,267.091 1337.92,267.091L543.995,267.091C533.391,267.091 524.782,275.7 524.782,286.304C524.782,296.908 533.391,305.517 543.995,305.517L1337.92,305.517C1348.53,305.517 1357.14,296.908 1357.14,286.304Z" style="fill:rgb(22,26,238);"/></g><g transform="matrix(0.302488,0,0,0.302488,974.773,17.849)"><g transform="matrix(0.900109,0,0,0.801474,59.7802,80.9498)"><rect x="506.059" y="487.605" width="80.05" height="407.837" style="fill:url(#_Linear1);"/></g><g transform="matrix(0.900109,0,0,0.555165,164.727,301.505)"><rect x="506.059" y="487.605" width="80.05" height="407.837" style="fill:url(#_Linear2);"/></g><g transform="matrix(0.900109,0,0,0.353623,269.674,481.975)"><rect x="506.059" y="487.605" width="80.05" height="407.837" style="fill:url(#_Linear3);"/></g><g transform="matrix(0.900109,0,0,0.58284,374.621,276.724)"><rect x="506.059" y="487.605" width="80.05" height="407.837" style="fill:url(#_Linear4);"/></g><g transform="matrix(0.900109,0,0,0.304774,479.568,525.716)"><rect x="506.059" y="487.605" width="80.05" height="407.837" style="fill:url(#_Linear5);"/></g></g><g transform="matrix(0.154506,0,0,0.154506,1051.25,148.868)"><circle cx="584.195" cy="1024.83" r="74.953" style="fill:rgb(22,26,238);"/></g><g transform="matrix(0.154506,0,0,0.154506,1083.01,148.868)"><circle cx="584.195" cy="1024.83" r="74.953" style="fill:rgb(22,26,238);"/></g><g transform="matrix(0.154506,0,0,0.154506,1114.77,148.868)"><circle cx="584.195" cy="1024.83" r="74.953" style="fill:rgb(22,26,238);"/></g><g transform="matrix(0.154506,0,0,0.154506,1147.35,148.868)"><circle cx="584.195" cy="1024.83" r="74.953" style="fill:rgb(22,26,238);"/></g><g transform="matrix(0.154506,0,0,0.154506,1179.93,148.868)"><circle cx="584.195" cy="1024.83" r="74.953" style="fill:rgb(22,26,238);"/></g><path d="M1087.79,146.406L1087.79,142.052C1087.79,136.782 1092.07,132.504 1097.34,132.504L1306.42,132.504C1311.69,132.504 1315.97,136.782 1315.97,142.052L1315.97,146.406L1087.79,146.406Z" style="fill:rgb(22,26,238);"/></g><g transform="matrix(-0.720883,0,0,0.720883,2850.1,1213.56)"><g transform="matrix(1,0,0,0.449295,96.2125,79.7193)"><path d="M1219.76,679.79C1219.76,668.579 1215.67,659.477 1210.63,659.477L1000.7,659.477C995.667,659.477 991.577,668.579 991.577,679.79L991.577,1087.32C991.577,1098.53 995.667,1107.63 1000.7,1107.63L1210.63,1107.63C1215.67,1107.63 1219.76,1098.53 1219.76,1087.32L1219.76,679.79Z" style="fill:rgb(235,235,235);"/></g><g transform="matrix(0.187832,0,0,0.187832,1026.95,472.073)"><path d="M1357.14,286.304C1357.14,275.7 1348.53,267.091 1337.92,267.091L543.995,267.091C533.391,267.091 524.782,275.7 524.782,286.304C524.782,296.908 533.391,305.517 543.995,305.517L1337.92,305.517C1348.53,305.517 1357.14,296.908 1357.14,286.304Z" style="fill:white;"/></g><g transform="matrix(0.302488,0,0,0.302488,974.773,258.821)"><g transform="matrix(0.900109,0,0,0.40545,59.7802,435.566)"><rect x="506.059" y="487.605" width="80.05" height="407.837" style="fill:rgb(114,124,245);"/></g><g transform="matrix(0.900109,0,0,0.280019,164.727,547.882)"><rect x="506.059" y="487.605" width="80.05" height="407.837" style="fill:rgb(114,124,245);"/></g><g transform="matrix(0.900109,0,0,0.692981,269.674,178.099)"><rect x="506.059" y="487.605" width="80.05" height="407.837" style="fill:rgb(42,51,127);"/></g><g transform="matrix(0.900109,0,0,0.482659,374.621,366.43)"><rect x="506.059" y="487.605" width="80.05" height="407.837" style="fill:rgb(42,51,127);"/></g><g transform="matrix(0.900109,0,0,0.620211,479.568,243.26)"><rect x="506.059" y="487.605" width="80.05" height="407.837" style="fill:rgb(42,51,127);"/></g></g><g transform="matrix(0.154506,0,0,0.154506,1051.25,389.84)"><circle cx="584.195" cy="1024.83" r="74.953" style="fill:white;"/></g><g transform="matrix(0.154506,0,0,0.154506,1083.01,389.84)"><circle cx="584.195" cy="1024.83" r="74.953" style="fill:white;"/></g><g transform="matrix(0.154506,0,0,0.154506,1114.77,389.84)"><circle cx="584.195" cy="1024.83" r="74.953" style="fill:white;"/></g><g transform="matrix(0.154506,0,0,0.154506,1147.35,389.84)"><circle cx="584.195" cy="1024.83" r="74.953" style="fill:rgb(228,232,233);"/></g><g transform="matrix(0.154506,0,0,0.154506,1179.93,389.84)"><circle cx="584.195" cy="1024.83" r="74.953" style="fill:rgb(228,232,233);"/></g><path d="M1087.79,390.075L1087.79,385.146C1087.79,380.109 1091.88,376.019 1096.92,376.019L1306.85,376.019C1311.88,376.019 1315.97,380.109 1315.97,385.146L1315.97,390.075L1087.79,390.075Z" style="fill:rgb(42,51,127);"/></g><g transform="matrix(-0.720883,0,0,0.720883,3155.81,850.095)"><g><path d="M1418.15,1310.28C1422.36,1295.01 1445.94,1217.4 1457.18,1187.47C1468.43,1157.55 1477.61,1119.87 1477.61,1119.87C1477.61,1119.87 1510.79,1101.2 1518.36,1121.38C1518.36,1121.38 1516.72,1196.33 1514.47,1224.73C1512.22,1253.12 1483.92,1329.28 1483.92,1329.28C1483.92,1329.28 1413.95,1325.55 1418.15,1310.28Z" style="fill:rgb(255,191,142);"/><path d="M1517.9,1120.28C1518.06,1120.63 1518.21,1121 1518.36,1121.38C1518.36,1121.38 1516.72,1196.33 1514.47,1224.73C1512.22,1253.12 1483.92,1329.28 1483.92,1329.28C1483.92,1329.28 1453.77,1327.68 1434.24,1322.25C1444.1,1300.41 1445.06,1278.53 1448.25,1253.04C1451.78,1224.82 1474.63,1223.39 1492.9,1209.69C1501.12,1203.52 1504.6,1186.19 1507.14,1176.68C1511.14,1161.66 1516.84,1144.49 1516.84,1128.8C1516.84,1128.28 1517.24,1124.52 1517.9,1120.28Z" style="fill:url(#_Linear6);"/><g transform="matrix(0.932758,0,0,1,104.682,0)"><path d="M1515.47,1124.26C1515.47,1124.26 1552.78,1079.17 1555.11,1073.3C1557.43,1067.42 1556.68,1022.46 1556.72,1018.75C1556.74,1015.04 1549.86,984.962 1548.95,980.447C1548.05,975.932 1538.85,982.009 1537.96,1004.25C1537.07,1026.48 1534.04,1027.19 1530.75,1030.95C1527.47,1034.71 1514.09,1029.44 1514.09,1029.44L1508.43,956.359C1508.43,956.359 1472.79,983.304 1469.56,985.841C1466.33,988.378 1462.37,996.342 1460.52,1001.22C1458.67,1006.1 1451.72,1008.31 1451.72,1008.31C1451.72,1008.31 1451.8,1016.95 1452.06,1020.72C1452.33,1024.48 1444.97,1030.39 1448.21,1038.7C1451.45,1047.01 1472.79,1122.89 1472.79,1122.89L1515.47,1124.26Z" style="fill:rgb(255,191,142);"/></g><path d="M1514.77,999.079C1509.73,999.224 1504.28,998.23 1499.52,997.277C1495.76,996.525 1489.46,991.938 1485.52,994.567C1480.09,998.182 1482.32,1007.41 1478.74,1012.18C1474.53,1017.79 1466.34,1017.01 1462.03,1023.48C1458.7,1028.47 1463.07,1036.89 1457.06,1042.9C1457,1042.95 1456.94,1043.01 1456.88,1043.06C1456.28,1041.03 1455.81,1039.53 1455.51,1038.7C1452.49,1030.39 1459.35,1024.48 1459.1,1020.72C1458.86,1016.95 1458.78,1008.31 1458.78,1008.31C1458.78,1008.31 1465.27,1006.1 1466.99,1001.22C1468.72,996.342 1472.41,988.378 1475.42,985.841C1478.44,983.304 1511.69,956.359 1511.69,956.359L1514.77,999.079Z" style="fill:url(#_Linear7);"/><path d="M1506.74,960.368C1509.74,957.938 1511.69,956.359 1511.69,956.359L1516.96,1029.44C1516.96,1029.44 1529.44,1034.71 1532.51,1030.95C1535.57,1027.19 1538.4,1026.48 1539.23,1004.25C1539.59,994.691 1541.37,988.119 1543.36,984.089C1543.43,988.535 1542.1,992.845 1541.75,997.441C1541.33,1002.88 1539.89,1008.11 1539.21,1013.52C1538.75,1017.23 1543.14,1018.58 1543.93,1021.77C1544.65,1024.65 1539.88,1028.77 1539.42,1031.5C1538.4,1037.61 1539.36,1046.17 1535.19,1051.39C1532.19,1055.14 1528.28,1051.16 1525.04,1050.75C1521.71,1050.34 1515.93,1050.54 1512.98,1048.85C1507.52,1045.73 1508.53,1040.2 1508.53,1034.67C1508.53,1025.43 1507.9,1016.2 1507.9,1006.96C1507.9,993.418 1508.29,979.618 1508.99,966.092L1506.74,960.368Z" style="fill:url(#_Linear8);"/></g><g><path d="M1441.4,1401.19C1440.94,1399.1 1424.93,1384.88 1420.62,1379.2C1416.3,1373.52 1417.86,1360.24 1418.76,1352.6C1419.32,1347.85 1414.36,1342.69 1414.5,1334.56C1414.59,1329.62 1419.25,1327.6 1417.57,1324.17C1416.2,1321.4 1455.28,1294.58 1469.39,1300.82C1469.39,1300.82 1441.87,1403.28 1441.4,1401.19Z" style="fill:rgb(6,8,15);"/><g transform="matrix(1,0,0,1,1.93898,1.96429)"><path d="M1473.29,1282.56C1473.29,1282.56 1457.05,1276.9 1449.03,1280.02C1441,1283.14 1432.54,1285.82 1427.65,1289.56C1422.76,1293.29 1414.4,1301.93 1410.54,1306.89C1406.67,1311.86 1404.88,1317.07 1405.83,1318.51C1406.78,1319.96 1410.04,1319.09 1410.13,1320.87C1410.23,1322.65 1408.66,1326.01 1409.17,1327.95C1409.69,1329.89 1412.96,1334.37 1412.96,1334.37C1412.96,1334.37 1416.86,1328.26 1418.57,1325.62C1420.27,1322.98 1437.77,1306.67 1459.58,1305.86C1481.38,1305.06 1478.49,1306.32 1478.49,1306.32L1473.29,1282.56Z" style="fill:rgb(39,48,90);"/></g><path d="M1409.01,1314.39C1412.7,1312.05 1416.23,1309.25 1419.87,1306.88C1429.24,1300.77 1439.19,1295.04 1449.65,1291.02C1452.27,1290.01 1454.94,1289.2 1457.71,1288.81C1458.41,1288.71 1459.97,1288.33 1460.57,1288.94C1461.43,1289.79 1459.17,1290.36 1458.75,1290.5C1455.99,1291.42 1453.25,1292.36 1450.56,1293.49C1443.39,1296.51 1436.83,1300.82 1430.92,1305.84C1428.28,1308.09 1425.58,1310.14 1423.12,1312.6C1422.51,1313.21 1422.03,1313.95 1421.43,1314.55C1421.06,1314.92 1419.92,1315.96 1420.39,1315.72C1421.32,1315.26 1422.14,1314.01 1422.99,1313.38C1425.44,1311.59 1427.91,1309.8 1430.4,1308.05C1432.68,1306.45 1435.24,1305.44 1437.69,1304.15C1442.6,1301.56 1447.19,1298.61 1452.38,1296.61C1455.43,1295.43 1457.96,1294.53 1461.22,1294.53C1461.93,1294.53 1463.82,1294.51 1464.21,1295.31C1464.44,1295.76 1460.95,1296.29 1460.7,1296.35C1457.68,1297.1 1454.88,1297.85 1452.25,1299.6C1451.77,1299.92 1449.44,1301.14 1449.91,1302.07C1450.2,1302.65 1451.73,1302.46 1452.25,1302.46C1454.31,1302.46 1456.05,1303.11 1457.84,1304.15C1459.61,1305.18 1461.39,1306.5 1463.23,1307.77C1462.67,1307.79 1462.1,1307.81 1461.51,1307.83C1439.71,1308.63 1422.21,1324.94 1420.51,1327.58C1418.8,1330.22 1414.9,1336.33 1414.9,1336.33C1414.9,1336.33 1411.63,1331.85 1411.11,1329.91C1410.6,1327.97 1412.17,1324.62 1412.07,1322.84C1411.98,1321.05 1408.72,1321.92 1407.77,1320.48C1407.18,1319.58 1407.65,1317.23 1409.01,1314.39Z" style="fill:url(#_Linear9);"/></g><g><path d="M1547.19,1166.28C1541.41,1171.08 1526.72,1187.14 1508.83,1212.94C1490.94,1238.74 1472.19,1284.79 1468.1,1292.09C1464,1299.39 1456,1309.02 1456,1309.02C1456,1309.02 1452.64,1317.78 1452.6,1321.1C1452.55,1324.42 1452.29,1326.18 1452.29,1326.18C1452.29,1326.18 1444.62,1328.12 1443.92,1336.23C1443.22,1344.35 1434.17,1385.59 1436.85,1391.51C1439.54,1397.44 1443.68,1405.39 1444.69,1409.45C1445.7,1413.51 1507.12,1421.43 1527.29,1415.73C1547.46,1410.02 1586.93,1395.31 1586.93,1395.31C1586.93,1395.31 1552.97,1161.46 1547.19,1166.28Z" style="fill:rgb(20,25,47);"/><path d="M1553.66,1188.82C1565.34,1246.62 1586.93,1395.31 1586.93,1395.31C1586.93,1395.31 1547.46,1410.02 1527.29,1415.73C1507.12,1421.43 1445.7,1413.51 1444.69,1409.45C1443.68,1405.39 1439.54,1397.44 1436.85,1391.51C1434.95,1387.31 1438.95,1365.35 1441.68,1350.04C1441.73,1349.99 1441.77,1349.94 1441.8,1349.9C1444.99,1346.72 1448.8,1343.16 1450.85,1339.04C1451.64,1337.47 1452.3,1333.98 1452.3,1333.98C1452.3,1333.98 1451.82,1336.63 1451.58,1337.96C1450.94,1341.47 1450.5,1344.9 1450.13,1348.45C1448.92,1359.94 1446.93,1369.44 1449.04,1381.03C1449.22,1381.99 1448.94,1386.84 1449.4,1387.54C1450.03,1388.49 1450.49,1381.38 1450.49,1380.3L1450.49,1362.93C1450.49,1362.08 1450.15,1356.05 1451.58,1356.05C1452.4,1356.05 1455.44,1360.89 1456.28,1361.48C1466.34,1368.53 1476.5,1377.42 1489.58,1374.15C1498.92,1371.81 1499.22,1350.05 1500.07,1343.39C1504.06,1312.31 1511.65,1278.28 1519.26,1247.84C1524.68,1226.16 1539.78,1205.83 1553.64,1188.84L1553.66,1188.82Z" style="fill:url(#_Linear10);"/></g><g><path d="M1674.16,1072.67C1674.16,1072.67 1654.96,1126.73 1651.25,1135.14L1771.73,1145.55C1771.73,1145.55 1769.08,1094.43 1771.49,1089.93C1773.89,1085.42 1802.85,1101.29 1808.18,1088.43L1755.78,1025.06L1674.16,1072.67Z" style="fill:rgb(255,191,142);"/><path d="M1701.76,1139.51L1651.25,1135.14C1654.96,1126.73 1674.16,1072.67 1674.16,1072.67L1755.78,1025.06L1808.18,1088.43C1807.9,1089.11 1807.55,1089.71 1807.15,1090.24C1803.56,1090.82 1800.8,1090.24 1796.63,1089.41C1783.7,1086.82 1772.64,1078.71 1759.36,1077.69C1755.2,1077.37 1750.72,1076.82 1746.94,1079.1C1744.04,1080.83 1766.99,1118.08 1767.46,1120.41C1769.2,1129.12 1748.34,1106.37 1750.69,1114.96C1751.02,1116.17 1754.46,1141.28 1751.96,1142.11C1748.52,1143.26 1703.88,1133.18 1701.76,1139.51Z" style="fill:url(#_Linear11);"/><path d="M1625.02,1158.88C1625.02,1158.88 1632.45,1137.07 1633.6,1133.6C1634.76,1130.12 1638.34,1126.51 1638.34,1126.51C1638.34,1126.51 1735.36,1124.52 1754.03,1129.85C1772.69,1135.18 1778.78,1141.33 1778.78,1141.33L1785.41,1163.81L1625.02,1158.88Z" style="fill:rgb(39,48,90);"/><path d="M1626.17,1155.5C1627.93,1155.15 1629.69,1154.87 1631.42,1154.37C1639.48,1152.07 1646.98,1148.3 1655.49,1147.52C1663.18,1146.82 1671.16,1149.55 1678.81,1149.93C1702.21,1151.1 1725.36,1155.98 1748.77,1157.15C1757.91,1157.6 1766.96,1158.52 1775.8,1160.48C1778.15,1161 1782.12,1161.74 1785.16,1162.99L1785.41,1163.81L1625.02,1158.88L1626.17,1155.5Z" style="fill:url(#_Linear12);"/><path d="M1679.91,846.278C1681.12,845 1682.32,843.706 1683.57,842.461C1692.57,833.46 1700.46,823.208 1709.67,814.436C1716.03,808.377 1722.02,802.82 1731.28,802.241C1737.01,801.883 1741.93,806.485 1744.51,811.996C1749.9,808.806 1755.57,806.24 1761.48,804.708C1770.44,802.384 1780.99,802.665 1787.26,810.509C1792.09,816.549 1793.85,823.925 1792.57,830.948C1790.25,843.712 1783.29,854.574 1774.43,863.9C1782.88,859.208 1793.98,855.892 1797.72,867.714C1806.56,895.695 1751.89,954.578 1751.89,954.578L1763.53,1017.89C1763.53,1017.89 1759.02,1031.75 1758.29,1036.58C1757.57,1041.41 1746.86,1072.92 1746.86,1072.92C1746.86,1072.92 1678.11,1080.27 1673.24,1078.59C1673.24,1078.59 1667.76,1074.31 1648.18,1051.33C1628.6,1028.34 1576.64,983.926 1577.34,956.139C1578.04,928.352 1586.68,919.693 1586.68,919.693C1586.68,919.693 1570.42,890.496 1614.28,874.484C1643.83,863.698 1667.56,852.463 1679.91,846.278Z"/><g><path d="M1794.69,969.592C1794.47,970.288 1795.7,971.617 1796.05,972.198C1797.58,974.744 1798.92,978.187 1801.02,980.287C1804.49,983.755 1819.25,997.626 1822.33,1002.62C1824.23,1005.72 1819.4,1010.03 1816.06,1014.21C1814.7,1015.91 1811.69,1018.18 1809.67,1018.18" style="fill:rgb(255,191,142);"/><path d="M1794.69,969.592C1794.47,970.288 1795.7,971.617 1796.05,972.198C1797.58,974.744 1798.92,978.187 1801.02,980.287C1804.49,983.755 1819.25,997.626 1822.33,1002.62C1824.23,1005.72 1819.4,1010.03 1816.06,1014.21C1814.7,1015.91 1811.69,1018.18 1809.67,1018.18" style="fill:url(#_Linear13);"/><path d="M1749.58,1004.26C1749.58,1004.26 1732.75,977.855 1727.19,976.109C1721.63,974.364 1711.7,974.074 1713.08,985.646C1714.45,997.218 1722.13,1023.25 1733.7,1029.77C1745.28,1036.28 1755.69,1039.16 1755.69,1039.16C1755.69,1039.16 1758.96,1054.7 1768.2,1071.01C1777.43,1087.31 1798.91,1100.45 1816.48,1088.56C1816.48,1088.56 1818.71,1061.11 1816.41,1046.3C1814.11,1031.5 1815.18,1011.46 1807.47,994.371C1799.76,977.287 1797.17,973.502 1795.54,966.89C1793.91,960.279 1791.84,939.011 1780.65,916.825C1780.65,916.825 1762.31,945.521 1748.35,954.229C1748.35,954.229 1759.02,1002.38 1758.79,1008.31C1758.57,1014.23 1749.58,1004.26 1749.58,1004.26Z" style="fill:rgb(255,191,142);"/><path d="M1753.61,1008.12C1756.04,1010.09 1758.67,1011.48 1758.79,1008.31C1759.02,1002.38 1748.35,954.229 1748.35,954.229C1748.92,953.869 1749.51,953.475 1750.1,953.05C1751.3,956.054 1751.78,959.858 1752.47,962.628C1754.34,970.078 1757.31,979.156 1761.39,985.689C1764.13,990.069 1768.28,992.669 1773.36,993.304C1774.73,993.476 1776.63,993.221 1777.93,993.739C1781.67,995.235 1784.85,1004.05 1785.98,1007.45C1791.41,1023.74 1786.43,1041.82 1793.59,1057.92C1795.37,1061.91 1796.42,1066.4 1798.38,1070.32C1799.8,1073.15 1802.34,1075.49 1804.03,1078.15C1805.57,1080.57 1806.63,1082.96 1809.04,1084.68C1810.84,1085.96 1813.6,1088.5 1816.19,1088.75C1798.68,1100.31 1777.38,1087.22 1768.2,1071.01C1758.96,1054.7 1755.69,1039.16 1755.69,1039.16C1755.69,1039.16 1745.28,1036.28 1733.7,1029.77C1722.13,1023.25 1714.45,997.218 1713.08,985.646C1712.72,982.638 1713.13,980.431 1714.02,978.842C1714.97,978.538 1715.91,978.411 1716.79,978.51C1720.21,978.889 1723.76,982.154 1725.93,984.602C1731.55,990.922 1737.51,998.841 1740.94,1006.58C1741.2,1007.15 1743.59,1013.52 1742.68,1013.97C1742.24,1014.19 1738.71,1009.7 1737.68,1009.19C1735.3,1008 1728.71,1004.63 1730.06,1010.06C1731.8,1016.98 1737.2,1023.98 1745.08,1023.98C1747.48,1023.98 1750.94,1023.99 1752.26,1021.37C1754.35,1017.17 1754.49,1012.54 1753.61,1008.12Z" style="fill:url(#_Linear14);"/></g></g><g><path d="M2151.93,1170.51L2187.4,1161.86C2187.4,1161.86 2182.71,1131.09 2173.85,1082.22C2164.98,1033.35 2132.82,942.937 2125.2,925.075C2125.2,925.075 2144.06,896.936 2169.86,914.529C2169.86,914.529 2224.48,1014.81 2242.88,1049.65C2261.27,1084.5 2293.27,1189.33 2294.43,1206.75C2294.96,1214.67 2236.62,1252.82 2198.93,1267.33L2151.93,1170.51Z" style="fill:rgb(255,191,142);"/><path d="M2174.29,1216.57C2177.78,1215.64 2181.26,1214.69 2184.72,1213.67C2190.68,1211.92 2195.61,1208.93 2201.84,1207.97C2213.57,1206.17 2225.93,1207.72 2236.05,1200.13C2240.43,1196.85 2232.52,1193.48 2230.71,1192.64C2220.96,1188.15 2213.02,1181.49 2204.69,1174.82C2203.51,1173.88 2195.24,1166.44 2196.49,1165.2C2196.72,1164.97 2201.74,1167.57 2202.19,1167.69C2210.2,1169.88 2251.58,1186.26 2260.57,1188.06C2267.7,1189.48 2287.84,1196.36 2292.73,1203.69C2293.67,1205.1 2293.98,1206.77 2293.89,1208.53C2287.91,1219.24 2234.32,1253.71 2198.93,1267.33L2174.29,1216.57Z" style="fill:url(#_Linear15);"/><path d="M2126.37,927.197C2123.8,920.993 2112.62,910.582 2102.27,903.204C2091.92,895.825 2080.69,885.688 2077.32,881.529C2073.94,877.369 2067.23,870.193 2067.23,866.711C2067.23,863.228 2062.11,835.702 2062.11,835.702L2072.63,825.106C2072.63,825.106 2074.16,813.3 2074.05,810.22C2073.94,807.141 2066,782.904 2063.44,763.434C2060.88,743.965 2058.81,734.941 2062.1,727.619C2065.38,720.296 2066.84,724.268 2068.26,730.596C2069.68,736.923 2086.35,780.066 2089.26,784.902C2092.18,789.738 2094.73,793.814 2094.73,793.814C2094.73,793.814 2102.77,792.296 2106.57,791.897C2110.37,791.498 2111.09,794.359 2114.45,795.472C2117.8,796.584 2123.1,795.437 2126.03,795.521C2128.95,795.606 2130.54,798.256 2133.56,801.919C2136.58,805.582 2140.87,806.594 2144.89,806.479C2148.91,806.364 2154.94,812.836 2157.89,816.446C2160.84,820.057 2163.56,831.108 2163.56,831.108L2172.82,919.572C2172.82,919.572 2128.93,933.401 2126.37,927.197Z" style="fill:rgb(255,191,142);"/><path d="M2060.47,734.573C2061.66,745.42 2064.01,756.391 2067.34,766.39C2072.67,782.375 2081.71,797.674 2085.78,813.934C2086.97,818.705 2082.24,824.026 2083.84,828.812C2086.56,836.987 2091.89,845.818 2095.48,853.716C2095.87,854.559 2100.47,861.016 2099.04,862.448C2096.46,865.031 2089.47,857.145 2086.75,855.98C2085.29,855.353 2081.31,853.203 2079.63,854.039C2078.73,854.49 2075.13,856.861 2074.78,856.626C2069.88,853.358 2066.15,845.687 2062.82,839.562C2062.39,837.209 2062.11,835.702 2062.11,835.702L2072.63,825.106C2072.63,825.106 2074.16,813.3 2074.05,810.22C2073.94,807.141 2066,782.904 2063.44,763.434C2061.62,749.568 2060.04,741 2060.47,734.573Z" style="fill:url(#_Linear16);"/><path d="M2086.53,848.578C2086.53,848.578 2085.13,846.466 2084.9,846.088C2083.76,844.187 2082.66,842.326 2081.36,840.537C2079.38,837.819 2078.59,834.41 2077.11,831.444C2076.92,831.069 2076,828.846 2075.57,828.846C2075.27,828.846 2075.83,829.388 2075.93,829.673C2076.1,830.199 2076.16,830.652 2076.16,831.208C2076.16,832.92 2076.64,834.855 2076.4,836.522C2076.27,837.394 2073.89,839.898 2074.27,840.655C2074.59,841.29 2077.44,842.125 2078.17,842.545C2080.29,843.754 2083.09,845.69 2084.78,847.387" style="fill:url(#_Linear17);"/></g><g><g transform="matrix(-0.836253,0,0,0.836253,3679.81,12.7819)"><path d="M2075.16,1989.61L2498.74,1989.61C2499.12,1988.07 2499.42,1986.08 2499.01,1983.09C2498.01,1975.73 2487.54,1970.91 2486.14,1967.92C2484.74,1964.93 2469.95,1880.31 2465.8,1848.66C2461.64,1817.01 2455.71,1779.99 2457.11,1773.83C2458.5,1767.67 2526.6,1640.95 2543.58,1593.04C2560.53,1545.25 2582.48,1448.1 2553.53,1378.07C2547.15,1362.67 2386.56,1364.81 2336.92,1368.5C2287.27,1372.19 2256.16,1375.75 2211.83,1384.08C2167.5,1392.4 2132.39,1398.04 2132.39,1398.04C2132.39,1398.04 2124.39,1395.91 2120,1396.26C2115.61,1396.61 2106.71,1399.86 2102.92,1400.65C2099.13,1401.45 2046.54,1401.09 2026.71,1397.57C2006.9,1394.03 1832.69,1382.06 1832.69,1382.06C1832.69,1382.06 1772.86,1432.55 1795.12,1512.15C1795.12,1512.15 1809.15,1522.44 1815.19,1526.57C1821.23,1530.69 1836.56,1521.2 1836.56,1521.2C1836.56,1521.2 1848.92,1524.12 1869.87,1533.8C1890.81,1543.5 1952.85,1570.92 1975.2,1578.35C1997.55,1585.77 2067.18,1615.2 2067.18,1615.2C2067.18,1615.2 2061.14,1683.45 2065.51,1776.51C2069.24,1855.83 2075.39,1922.24 2075.16,1989.61Z" style="fill:rgb(20,25,47);"/></g><path d="M2163.28,1187.13C2176,1205.62 2189.91,1237.01 2178.63,1277.32C2178.63,1277.32 2166.9,1285.93 2161.85,1289.38C2156.8,1292.83 2143.98,1284.89 2143.98,1284.89C2143.98,1284.89 2133.64,1287.33 2116.12,1295.43C2098.61,1303.54 2046.73,1326.47 2028.04,1332.68C2009.35,1338.89 1951.12,1363.5 1951.12,1363.5C1951.12,1363.5 1953.35,1388.66 1953.77,1428.35C1948.91,1421.18 1944.18,1413.96 1942.21,1406.08C1937.54,1387.37 1942.19,1367.16 1938.98,1347.89C1938.17,1343.02 1927.38,1315.53 1928.64,1314.28C1928.75,1314.16 1933.75,1317.28 1934.46,1317.51C1947.2,1321.76 1955.16,1334.63 1968.72,1327.85C1983.8,1320.31 1997.02,1291.07 1999.76,1289.71C2012.99,1283.09 2032.29,1297.4 2047.6,1292.29C2071.23,1284.42 2094.7,1276.08 2118.72,1265.79C2123.24,1263.85 2131.74,1262.81 2135.53,1259.97C2136.91,1258.93 2139.9,1257.04 2140.7,1255.44C2140.95,1254.94 2140.48,1250.27 2140.7,1250.27C2148.52,1250.27 2149.91,1264.09 2159.45,1259.32C2166.54,1255.78 2147.02,1200.12 2148.46,1197.25C2150.94,1192.29 2157.28,1189.6 2163.28,1187.13Z" style="fill:url(#_Linear18);"/><path d="M1935.81,1337.73C1935.81,1337.73 1885.6,1255.08 1901.86,1186.45C1901.86,1186.45 1897.41,1219.35 1910.14,1262.24C1922.88,1305.14 1935.81,1337.73 1935.81,1337.73Z" style="fill:url(#_Linear19);"/><g transform="matrix(-0.836253,0,0,0.836253,3679.81,12.7819)"><path d="M2288.42,1989.61L2498.74,1989.61C2499.12,1988.07 2499.42,1986.08 2499.01,1983.09C2498.01,1975.73 2487.54,1970.91 2486.14,1967.92C2484.74,1964.93 2469.95,1880.31 2465.8,1848.66C2461.64,1817.01 2455.71,1779.99 2457.11,1773.83C2458.5,1767.67 2526.6,1640.95 2543.58,1593.04C2560.53,1545.25 2582.48,1448.1 2553.53,1378.07C2551.85,1374.03 2539.55,1371.18 2521.41,1369.27C2499.37,1403.89 2436.04,1422.8 2420.33,1457.38C2399.11,1504.04 2394.77,1566.1 2390.17,1616.64C2383.96,1684.95 2357.34,1758.07 2327.55,1817.65C2323.94,1824.88 2341.81,1827.71 2345.33,1827.71C2357.77,1827.71 2371.5,1832.53 2383.99,1830.03C2392.81,1828.26 2401.23,1825.44 2410.27,1824.61C2411.99,1824.46 2440.22,1821.83 2437.33,1826.15C2435.29,1829.24 2430.17,1831.06 2427.29,1833.12C2414.17,1842.49 2403.5,1853.52 2388.62,1860.95C2355.31,1877.61 2292.04,1883.02 2254.1,1886.46C2234.25,1888.27 2214.65,1888.78 2194.57,1888.78C2191.39,1888.78 2165.95,1891.1 2165.97,1891.1C2169.96,1895.09 2186.4,1894.07 2192.25,1895.74C2227.12,1905.7 2259.49,1910.44 2295.85,1910.44C2304.21,1910.44 2332.39,1903.67 2339.14,1910.44C2341.21,1912.49 2332.15,1922.73 2332.96,1924.34C2333.33,1925.09 2335.42,1925.68 2336.06,1925.9C2340.36,1927.33 2381.68,1935.15 2377.03,1944.44C2375.05,1948.41 2367.3,1951.16 2363.88,1953.72C2339.76,1971.83 2314.85,1982.65 2288.42,1989.61Z" style="fill:url(#_Linear20);"/></g><g transform="matrix(1,0,0,1,-3.44842,-13.7993)"><path d="M1712.93,1640.67C1712.73,1641.89 1720.06,1646.65 1721.45,1647.54C1732.25,1654.41 1744.92,1659.66 1756.39,1665.4C1765.85,1670.12 1775.39,1675.28 1785.64,1678.08C1810.87,1684.96 1840.05,1679.8 1865.36,1676.01C1880.94,1673.67 1899.28,1671.21 1913.5,1664.1C1914.81,1663.45 1908.54,1661.82 1908.32,1661.77C1904.38,1660.9 1900.42,1659.91 1896.41,1659.44C1883.5,1657.92 1870.85,1656.6 1857.85,1656.08C1822.61,1654.67 1786.36,1652.51 1751.99,1643.91C1744.4,1642.02 1736.37,1641.22 1728.7,1639.51C1726.89,1639.11 1722.1,1638.49 1721.19,1636.67" style="fill:url(#_Linear21);"/></g><path d="M2131.3,1170.8C2131.3,1170.8 2136.51,1168.92 2138.68,1165.1C2140.87,1161.27 2143.33,1159.03 2146.84,1160.96C2150.36,1162.89 2153.84,1165.45 2156.03,1162.43C2158.22,1159.42 2167.17,1165.01 2167.17,1165.01C2167.17,1165.01 2182.16,1175.74 2190.22,1201.14C2198.27,1226.54 2206.1,1262.31 2205.54,1268.5C2204.98,1274.68 2202.18,1285.52 2197.91,1285.66C2193.64,1285.79 2185.8,1281.03 2183.47,1284.34C2181.14,1287.64 2179.96,1286.36 2175.8,1287.58C2171.65,1288.8 2170.75,1282.53 2170.75,1282.53C2170.75,1282.53 2178.75,1279.15 2179.43,1265.65C2179.96,1255.24 2174.33,1234.06 2170.03,1219.97C2155.7,1172.96 2131.3,1170.8 2131.3,1170.8Z" style="fill:rgb(39,48,91);"/><path d="M2139.91,1163.17C2151.66,1167.83 2159.17,1176.58 2165.62,1187.63C2174.08,1202.14 2177.59,1217.21 2181.98,1233.31C2183.56,1239.13 2184.85,1245.1 2186.3,1250.91C2186.37,1251.2 2188.2,1257.03 2189.08,1256.15C2191.5,1253.73 2188.06,1244.77 2187.53,1242.26C2184.59,1228.29 2183.07,1213.46 2178.58,1199.98C2177.14,1195.66 2175.72,1191.44 2173.95,1187.32C2173.83,1187.03 2172.61,1183.52 2173.03,1183.31C2173.84,1182.9 2177.84,1189.85 2178.27,1190.72C2182.26,1198.7 2185.33,1208.18 2188.15,1216.64C2188.57,1217.9 2192.96,1227.09 2193.09,1226.83C2194.84,1223.33 2193.84,1216.05 2193.06,1210.56C2200.01,1234.62 2206.03,1263.04 2205.54,1268.5C2204.98,1274.68 2202.18,1285.52 2197.91,1285.66C2193.64,1285.79 2185.8,1281.03 2183.47,1284.34C2181.14,1287.64 2179.96,1286.36 2175.8,1287.58C2171.65,1288.8 2170.75,1282.53 2170.75,1282.53C2170.75,1282.53 2178.75,1279.15 2179.43,1265.65C2179.96,1255.24 2174.33,1234.06 2170.03,1219.97C2155.7,1172.96 2131.3,1170.8 2131.3,1170.8C2131.3,1170.8 2136.51,1168.92 2138.68,1165.1C2139.08,1164.4 2139.49,1163.75 2139.91,1163.17Z" style="fill:url(#_Linear22);"/><path d="M1664.85,1254.23C1664.85,1254.23 1662.9,1402.87 1733.46,1536.2C1733.46,1536.2 1696.35,1447.5 1684.94,1369.84C1673.54,1292.17 1664.85,1254.23 1664.85,1254.23Z" style="fill:url(#_Linear23);"/><g transform="matrix(1.21749,0,0,1.06446,-378.465,-99.6022)"><path d="M1730.61,1551.25C1729.26,1551.91 1729.04,1554.9 1728.68,1556.27C1727.49,1560.77 1726.33,1565.26 1725.37,1569.82C1724.68,1573.09 1723.7,1577.18 1724.54,1580.57C1725.81,1585.63 1729.47,1590.34 1731.32,1595.29C1733.49,1601.08 1730.98,1606.41 1731.82,1612.32C1732.55,1617.4 1736.02,1621.61 1737.61,1626.37C1738.15,1628.01 1732.07,1631.72 1731.16,1632.98C1729.69,1635 1727.98,1636.79 1726.69,1638.93C1725.72,1640.57 1724.88,1642.28 1724.21,1644.06C1721.98,1650.01 1717.9,1656.25 1721.4,1662.08C1721.74,1662.64 1721.97,1664.43 1722.56,1664.73C1723.32,1665.11 1723.08,1662.99 1723.06,1662.74C1722.85,1660.92 1722.56,1659.3 1722.56,1657.45C1722.56,1653 1723.97,1645.46 1727.36,1642.08C1730.37,1639.06 1733.55,1635.76 1736.28,1632.49C1737.7,1630.78 1738.79,1627.99 1740.09,1626.7C1740.55,1626.24 1739.17,1622.02 1738.93,1621.41C1736.95,1616.47 1735.5,1611.07 1733.31,1606.69C1732.88,1605.84 1734.04,1604 1734.3,1603.22C1734.83,1601.61 1734.49,1597.67 1733.97,1596.11C1731.95,1590.06 1728.23,1584.58 1726.69,1578.42C1725.71,1574.5 1726.76,1569.51 1727.52,1565.69C1728.9,1558.8 1730.44,1552.04 1733.31,1545.35" style="fill:url(#_Linear24);"/></g><g transform="matrix(1,0,0,1,-3.2836,45.1816)"><path d="M1551.1,1198.67C1551.1,1198.67 1748.36,1211.98 1886.4,1217.07C1886.4,1217.07 1732.99,1216.61 1672.34,1210.64C1611.68,1204.67 1551.1,1198.67 1551.1,1198.67Z" style="fill:url(#_Linear25);"/></g></g></g></g><g transform="matrix(-1.49811,4.97885e-16,0,1.49811,3074.54,1382.84)"><g transform="matrix(1,0,0,0.470021,96.2125,-177.464)"><path d="M1219.76,679.79C1219.76,668.579 1215.48,659.477 1210.21,659.477L1001.12,659.477C995.856,659.477 991.577,668.579 991.577,679.79L991.577,1087.32C991.577,1098.53 995.856,1107.63 1001.12,1107.63L1210.21,1107.63C1215.48,1107.63 1219.76,1098.53 1219.76,1087.32L1219.76,679.79Z" style="fill:white;"/></g><g transform="matrix(0.187832,0,0,0.187832,1026.95,231.102)"><path d="M1357.14,286.304C1357.14,275.7 1348.53,267.091 1337.92,267.091L543.995,267.091C533.391,267.091 524.782,275.7 524.782,286.304C524.782,296.908 533.391,305.517 543.995,305.517L1337.92,305.517C1348.53,305.517 1357.14,296.908 1357.14,286.304Z" style="fill:rgb(228,232,233);"/></g><g transform="matrix(0.302488,0,0,0.302488,974.773,17.849)"><g transform="matrix(0.900109,0,0,0.801474,59.7802,80.9498)"><rect x="506.059" y="487.605" width="80.05" height="407.837" style="fill:url(#_Linear26);"/></g><g transform="matrix(0.900109,0,0,0.555165,164.727,301.505)"><rect x="506.059" y="487.605" width="80.05" height="407.837" style="fill:url(#_Linear27);"/></g><g transform="matrix(0.900109,0,0,0.353623,269.674,481.975)"><rect x="506.059" y="487.605" width="80.05" height="407.837" style="fill:url(#_Linear28);"/></g><g transform="matrix(0.900109,0,0,0.58284,374.621,276.724)"><rect x="506.059" y="487.605" width="80.05" height="407.837" style="fill:url(#_Linear29);"/></g><g transform="matrix(0.900109,0,0,0.304774,479.568,525.716)"><rect x="506.059" y="487.605" width="80.05" height="407.837" style="fill:url(#_Linear30);"/></g></g><g transform="matrix(0.154506,0,0,0.154506,1051.25,148.868)"><circle cx="584.195" cy="1024.83" r="74.953" style="fill:rgb(228,232,233);"/></g><g transform="matrix(0.154506,0,0,0.154506,1083.01,148.868)"><circle cx="584.195" cy="1024.83" r="74.953" style="fill:rgb(228,232,233);"/></g><g transform="matrix(0.154506,0,0,0.154506,1114.77,148.868)"><circle cx="584.195" cy="1024.83" r="74.953" style="fill:rgb(228,232,233);"/></g><g transform="matrix(0.154506,0,0,0.154506,1147.35,148.868)"><circle cx="584.195" cy="1024.83" r="74.953" style="fill:rgb(228,232,233);"/></g><g transform="matrix(0.154506,0,0,0.154506,1179.93,148.868)"><circle cx="584.195" cy="1024.83" r="74.953" style="fill:rgb(228,232,233);"/></g><path d="M1087.79,146.406L1087.79,142.052C1087.79,136.782 1092.07,132.504 1097.34,132.504L1306.42,132.504C1311.69,132.504 1315.97,136.782 1315.97,142.052L1315.97,146.406L1087.79,146.406Z" style="fill:rgb(22,26,238);"/></g><g transform="matrix(-1.15522,2.71878e-16,4.94324e-17,1.15522,4440.76,1015.35)"><g transform="matrix(0.543452,0,0,1.53386,542.472,-791.997)"><path d="M1891.07,570.167C1891.07,565.12 1879.5,561.023 1865.26,561.023L1540.03,561.023C1525.79,561.023 1514.22,565.12 1514.22,570.167L1514.22,1064C1514.22,1069.05 1525.79,1073.14 1540.03,1073.14L1865.26,1073.14C1879.5,1073.14 1891.07,1069.05 1891.07,1064L1891.07,570.167Z" style="fill:rgb(246,246,246);"/></g><g transform="matrix(0.674672,0,0,0.674672,833.839,-119.985)"><g transform="matrix(0.894528,0,0,0.582248,112.375,239.991)"><rect x="856.673" y="558.908" width="179.031" height="12.045" style="fill:rgb(114,124,245);"/></g><g transform="matrix(0.107854,0,0,1.47645,754.97,-264.399)"><rect x="856.673" y="558.908" width="179.031" height="12.045" style="fill:rgb(114,124,245);"/></g></g><g transform="matrix(0.674672,0,0,0.674672,833.839,242.703)"><g transform="matrix(0.894528,0,0,0.582248,112.375,239.991)"><rect x="856.673" y="558.908" width="179.031" height="12.045" style="fill:rgb(114,124,245);"/></g><g transform="matrix(0.107854,0,0,1.47645,754.97,-264.399)"><rect x="856.673" y="558.908" width="179.031" height="12.045" style="fill:rgb(114,124,245);"/></g></g><g transform="matrix(0.674672,0,0,0.674672,833.839,-79.472)"><g transform="matrix(0.894528,0,0,0.582248,112.375,239.991)"><rect x="856.673" y="558.908" width="179.031" height="12.045" style="fill:rgb(114,124,245);"/></g><g transform="matrix(0.107854,0,0,1.47645,754.97,-264.399)"><rect x="856.673" y="558.908" width="179.031" height="12.045" style="fill:rgb(114,124,245);"/></g></g><g transform="matrix(0.674672,0,0,0.674672,833.839,283.216)"><g transform="matrix(0.894528,0,0,0.582248,112.375,239.991)"><rect x="856.673" y="558.908" width="179.031" height="12.045" style="fill:rgb(114,124,245);"/></g><g transform="matrix(0.107854,0,0,1.47645,754.97,-264.399)"><rect x="856.673" y="558.908" width="179.031" height="12.045" style="fill:rgb(114,124,245);"/></g></g><g transform="matrix(0.674672,0,0,0.674672,833.839,-38.959)"><g transform="matrix(0.894528,0,0,0.582248,112.375,239.991)"><rect x="856.673" y="558.908" width="179.031" height="12.045" style="fill:rgb(114,124,245);"/></g><g transform="matrix(0.107854,0,0,1.47645,754.97,-264.399)"><rect x="856.673" y="558.908" width="179.031" height="12.045" style="fill:rgb(114,124,245);"/></g></g><g transform="matrix(0.674672,0,0,0.674672,833.839,323.729)"><g transform="matrix(0.894528,0,0,0.582248,112.375,239.991)"><rect x="856.673" y="558.908" width="179.031" height="12.045" style="fill:rgb(114,124,245);"/></g><g transform="matrix(0.107854,0,0,1.47645,754.97,-264.399)"><rect x="856.673" y="558.908" width="179.031" height="12.045" style="fill:rgb(114,124,245);"/></g></g><g transform="matrix(0.674672,0,0,0.674672,833.839,1.55398)"><g transform="matrix(0.894528,0,0,0.582248,112.375,239.991)"><rect x="856.673" y="558.908" width="179.031" height="12.045" style="fill:rgb(114,124,245);"/></g><g transform="matrix(0.107854,0,0,1.47645,754.97,-264.399)"><rect x="856.673" y="558.908" width="179.031" height="12.045" style="fill:rgb(114,124,245);"/></g></g><g transform="matrix(0.674672,0,0,0.674672,833.839,364.242)"><g transform="matrix(0.894528,0,0,0.582248,112.375,239.991)"><rect x="856.673" y="558.908" width="179.031" height="12.045" style="fill:rgb(114,124,245);"/></g><g transform="matrix(0.107854,0,0,1.47645,754.97,-264.399)"><rect x="856.673" y="558.908" width="179.031" height="12.045" style="fill:rgb(114,124,245);"/></g></g><g transform="matrix(0.674672,0,0,0.674672,833.839,42.067)"><g transform="matrix(0.894528,0,0,0.582248,112.375,239.991)"><rect x="856.673" y="558.908" width="179.031" height="12.045" style="fill:rgb(114,124,245);"/></g><g transform="matrix(0.107854,0,0,1.47645,754.97,-264.399)"><rect x="856.673" y="558.908" width="179.031" height="12.045" style="fill:rgb(114,124,245);"/></g></g><g transform="matrix(0.674672,0,0,0.674672,833.839,404.755)"><g transform="matrix(0.894528,0,0,0.582248,112.375,239.991)"><rect x="856.673" y="558.908" width="179.031" height="12.045" style="fill:rgb(114,124,245);"/></g><g transform="matrix(0.107854,0,0,1.47645,754.97,-264.399)"><rect x="856.673" y="558.908" width="179.031" height="12.045" style="fill:rgb(114,124,245);"/></g></g><g transform="matrix(0.636769,0,0,0.636769,972.389,-154.209)"><g transform="matrix(1,0,0,1,32.2159,-15.0532)"><path d="M843.167,474.771C843.167,461.783 832.622,451.238 819.633,451.238L668.573,451.238C655.584,451.238 645.039,461.783 645.039,474.771L645.039,591.315C645.039,604.304 655.584,614.849 668.573,614.849L819.633,614.849C832.622,614.849 843.167,604.304 843.167,591.315L843.167,474.771Z" style="fill:rgb(114,124,245);"/></g><path d="M709.704,524.006L700.401,524.006L700.401,580.775L709.704,580.775L709.704,524.006ZM746.423,556.383L737.12,556.383L737.12,580.775L746.423,580.775L746.423,556.383ZM819.86,556.185L810.557,556.185L810.557,580.775L819.86,580.775L819.86,556.185ZM856.578,544.194L847.276,544.194L847.276,580.775L856.578,580.775L856.578,544.194ZM801.5,541.89L792.198,541.89L792.198,580.775L801.5,580.775L801.5,541.89ZM728.063,541.717L718.761,541.717L718.761,580.775L728.063,580.775L728.063,541.717ZM764.782,533.684L755.479,533.684L755.479,580.775L764.782,580.775L764.782,533.684ZM838.219,532.771L828.916,532.771L828.916,580.775L838.219,580.775L838.219,532.771ZM783.141,524.006L773.839,524.006L773.839,580.775L783.141,580.775L783.141,524.006Z" style="fill:white;"/><g transform="matrix(1,0,0,1,0,-72.893)"><path d="M709.704,546.815L700.401,546.815L700.401,580.775L709.704,580.775L709.704,546.815ZM746.423,539.601L737.12,539.601L737.12,580.775L746.423,580.775L746.423,539.601ZM819.86,528.448L810.557,528.448L810.557,580.775L819.86,580.775L819.86,528.448ZM856.578,564.705L847.276,564.705L847.276,580.775L856.578,580.775L856.578,564.705ZM801.5,550.258L792.198,550.258L792.198,580.775L801.5,580.775L801.5,550.258ZM728.063,526.177L718.761,526.177L718.761,580.775L728.063,580.775L728.063,526.177ZM764.782,562.721L755.479,562.721L755.479,580.775L764.782,580.775L764.782,562.721ZM838.219,554.887L828.916,554.887L828.916,580.775L838.219,580.775L838.219,554.887ZM783.141,570.068L773.839,570.068L773.839,580.775L783.141,580.775L783.141,570.068Z" style="fill:white;"/></g></g><g transform="matrix(0.636769,0,0,0.636769,972.389,208.48)"><g transform="matrix(1,0,0,1,32.2159,-15.0532)"><path d="M843.167,474.771C843.167,461.783 832.622,451.238 819.633,451.238L668.573,451.238C655.584,451.238 645.039,461.783 645.039,474.771L645.039,591.315C645.039,604.304 655.584,614.849 668.573,614.849L819.633,614.849C832.622,614.849 843.167,604.304 843.167,591.315L843.167,474.771Z" style="fill:rgb(114,124,245);"/></g><path d="M709.704,524.006L700.401,524.006L700.401,580.775L709.704,580.775L709.704,524.006ZM746.423,556.383L737.12,556.383L737.12,580.775L746.423,580.775L746.423,556.383ZM819.86,556.185L810.557,556.185L810.557,580.775L819.86,580.775L819.86,556.185ZM856.578,544.194L847.276,544.194L847.276,580.775L856.578,580.775L856.578,544.194ZM801.5,541.89L792.198,541.89L792.198,580.775L801.5,580.775L801.5,541.89ZM728.063,541.717L718.761,541.717L718.761,580.775L728.063,580.775L728.063,541.717ZM764.782,533.684L755.479,533.684L755.479,580.775L764.782,580.775L764.782,533.684ZM838.219,532.771L828.916,532.771L828.916,580.775L838.219,580.775L838.219,532.771ZM783.141,524.006L773.839,524.006L773.839,580.775L783.141,580.775L783.141,524.006Z" style="fill:white;"/><g transform="matrix(1,0,0,1,0,-72.893)"><path d="M709.704,546.815L700.401,546.815L700.401,580.775L709.704,580.775L709.704,546.815ZM746.423,539.601L737.12,539.601L737.12,580.775L746.423,580.775L746.423,539.601ZM819.86,528.448L810.557,528.448L810.557,580.775L819.86,580.775L819.86,528.448ZM856.578,564.705L847.276,564.705L847.276,580.775L856.578,580.775L856.578,564.705ZM801.5,550.258L792.198,550.258L792.198,580.775L801.5,580.775L801.5,550.258ZM728.063,526.177L718.761,526.177L718.761,580.775L728.063,580.775L728.063,526.177ZM764.782,562.721L755.479,562.721L755.479,580.775L764.782,580.775L764.782,562.721ZM838.219,554.887L828.916,554.887L828.916,580.775L838.219,580.775L838.219,554.887ZM783.141,570.068L773.839,570.068L773.839,580.775L783.141,580.775L783.141,570.068Z" style="fill:white;"/></g></g><g transform="matrix(1,0,0,1,-18.3415,0)"><path d="M1383.72,88.403L1383.72,82.56C1383.72,74.819 1390,68.534 1397.75,68.534L1574.49,68.534C1582.23,68.534 1588.52,74.819 1588.52,82.56L1588.52,88.403L1383.72,88.403Z" style="fill:rgb(114,124,245);"/></g></g></g></g><defs><linearGradient id="_Linear1" x1="0" y1="0" x2="1" y2="0" gradientUnits="userSpaceOnUse" gradientTransform="matrix(-8.95245,525.03,467.497,10.0542,769.442,614.235)"><stop offset="0" style="stop-color:rgb(114,124,245);stop-opacity:1"/><stop offset="1" style="stop-color:rgb(0,18,236);stop-opacity:1"/></linearGradient><linearGradient id="_Linear2" x1="0" y1="0" x2="1" y2="0" gradientUnits="userSpaceOnUse" gradientTransform="matrix(-8.95245,757.97,467.497,14.5149,652.849,489.473)"><stop offset="0" style="stop-color:rgb(114,124,245);stop-opacity:1"/><stop offset="1" style="stop-color:rgb(0,18,236);stop-opacity:1"/></linearGradient><linearGradient id="_Linear3" x1="0" y1="0" x2="1" y2="0" gradientUnits="userSpaceOnUse" gradientTransform="matrix(-8.95245,1189.96,467.497,22.7875,536.255,258.094)"><stop offset="0" style="stop-color:rgb(114,124,245);stop-opacity:1"/><stop offset="1" style="stop-color:rgb(0,18,236);stop-opacity:1"/></linearGradient><linearGradient id="_Linear4" x1="0" y1="0" x2="1" y2="0" gradientUnits="userSpaceOnUse" gradientTransform="matrix(-8.95245,721.979,467.497,13.8257,419.661,508.749)"><stop offset="0" style="stop-color:rgb(114,124,245);stop-opacity:1"/><stop offset="1" style="stop-color:rgb(0,18,236);stop-opacity:1"/></linearGradient><linearGradient id="_Linear5" x1="0" y1="0" x2="1" y2="0" gradientUnits="userSpaceOnUse" gradientTransform="matrix(-8.95245,1380.69,467.497,26.4399,303.068,155.942)"><stop offset="0" style="stop-color:rgb(114,124,245);stop-opacity:1"/><stop offset="1" style="stop-color:rgb(0,18,236);stop-opacity:1"/></linearGradient><linearGradient id="_Linear6" x1="0" y1="0" x2="1" y2="0" gradientUnits="userSpaceOnUse" gradientTransform="matrix(102.314,122.769,-122.769,102.314,1449.47,1183.34)"><stop offset="0" style="stop-color:rgb(227,118,20);stop-opacity:0"/><stop offset="1" style="stop-color:rgb(227,118,20);stop-opacity:1"/></linearGradient><linearGradient id="_Linear7" x1="0" y1="0" x2="1" y2="0" gradientUnits="userSpaceOnUse" gradientTransform="matrix(-7.88703,-226.301,226.301,-7.88703,1498.85,1058.08)"><stop offset="0" style="stop-color:rgb(227,118,20);stop-opacity:0"/><stop offset="1" style="stop-color:rgb(227,118,20);stop-opacity:1"/></linearGradient><linearGradient id="_Linear8" x1="0" y1="0" x2="1" y2="0" gradientUnits="userSpaceOnUse" gradientTransform="matrix(-90.2215,71.9941,-71.9941,-90.2215,1562.41,1017.98)"><stop offset="0" style="stop-color:rgb(227,118,20);stop-opacity:0"/><stop offset="1" style="stop-color:rgb(227,118,20);stop-opacity:1"/></linearGradient><linearGradient id="_Linear9" x1="0" y1="0" x2="1" y2="0" gradientUnits="userSpaceOnUse" gradientTransform="matrix(-56.0933,82.424,-82.424,-56.0933,1464.96,1277.34)"><stop offset="0" style="stop-color:black;stop-opacity:0"/><stop offset="1" style="stop-color:black;stop-opacity:1"/></linearGradient><linearGradient id="_Linear10" x1="0" y1="0" x2="1" y2="0" gradientUnits="userSpaceOnUse" gradientTransform="matrix(143.77,265.898,-265.898,143.77,1486.62,1215.04)"><stop offset="0" style="stop-color:black;stop-opacity:0"/><stop offset="1" style="stop-color:black;stop-opacity:1"/></linearGradient><linearGradient id="_Linear11" x1="0" y1="0" x2="1" y2="0" gradientUnits="userSpaceOnUse" gradientTransform="matrix(-109.539,-183.407,183.407,-109.539,1797.87,1136.39)"><stop offset="0" style="stop-color:rgb(227,118,20);stop-opacity:0"/><stop offset="1" style="stop-color:rgb(227,118,20);stop-opacity:1"/></linearGradient><linearGradient id="_Linear12" x1="0" y1="0" x2="1" y2="0" gradientUnits="userSpaceOnUse" gradientTransform="matrix(160.382,0,0,160.382,1625.02,1155.61)"><stop offset="0" style="stop-color:black;stop-opacity:0"/><stop offset="1" style="stop-color:black;stop-opacity:1"/></linearGradient><linearGradient id="_Linear13" x1="0" y1="0" x2="1" y2="0" gradientUnits="userSpaceOnUse" gradientTransform="matrix(-11.9502,43.0647,-43.0647,-11.9502,1816.86,988.77)"><stop offset="0" style="stop-color:rgb(227,118,20);stop-opacity:0"/><stop offset="1" style="stop-color:rgb(227,118,20);stop-opacity:1"/></linearGradient><linearGradient id="_Linear14" x1="0" y1="0" x2="1" y2="0" gradientUnits="userSpaceOnUse" gradientTransform="matrix(-103.928,108.132,-108.132,-103.928,1785.91,987.643)"><stop offset="0" style="stop-color:rgb(227,118,20);stop-opacity:0"/><stop offset="1" style="stop-color:rgb(227,118,20);stop-opacity:1"/></linearGradient><linearGradient id="_Linear15" x1="0" y1="0" x2="1" y2="0" gradientUnits="userSpaceOnUse" gradientTransform="matrix(-19.5073,172.264,-172.264,-19.5073,2261.71,1148.3)"><stop offset="0" style="stop-color:rgb(227,118,20);stop-opacity:0"/><stop offset="1" style="stop-color:rgb(227,118,20);stop-opacity:1"/></linearGradient><linearGradient id="_Linear16" x1="0" y1="0" x2="1" y2="0" gradientUnits="userSpaceOnUse" gradientTransform="matrix(-70.4463,95.3658,-95.3658,-70.4463,2103.23,799.57)"><stop offset="0" style="stop-color:rgb(227,118,20);stop-opacity:0"/><stop offset="1" style="stop-color:rgb(227,118,20);stop-opacity:1"/></linearGradient><linearGradient id="_Linear17" x1="0" y1="0" x2="1" y2="0" gradientUnits="userSpaceOnUse" gradientTransform="matrix(-11.9402,9.41795,-9.41795,-11.9402,2084.56,832.536)"><stop offset="0" style="stop-color:rgb(227,118,20);stop-opacity:0"/><stop offset="1" style="stop-color:rgb(227,118,20);stop-opacity:1"/></linearGradient><linearGradient id="_Linear18" x1="0" y1="0" x2="1" y2="0" gradientUnits="userSpaceOnUse" gradientTransform="matrix(29.6102,137.069,137.069,-29.6102,2028.21,1236.22)"><stop offset="0" style="stop-color:black;stop-opacity:0"/><stop offset="1" style="stop-color:black;stop-opacity:1"/></linearGradient><linearGradient id="_Linear19" x1="0" y1="0" x2="1" y2="0" gradientUnits="userSpaceOnUse" gradientTransform="matrix(-97.569,149.146,-149.146,-97.569,1934.3,1222.64)"><stop offset="0" style="stop-color:rgb(0,7,64);stop-opacity:0"/><stop offset="1" style="stop-color:rgb(0,7,64);stop-opacity:1"/></linearGradient><linearGradient id="_Linear20" x1="0" y1="0" x2="1" y2="0" gradientUnits="userSpaceOnUse" gradientTransform="matrix(-375.192,260.742,-260.742,-375.192,1770.68,1410.7)"><stop offset="0" style="stop-color:black;stop-opacity:0"/><stop offset="1" style="stop-color:black;stop-opacity:1"/></linearGradient><linearGradient id="_Linear21" x1="0" y1="0" x2="1" y2="0" gradientUnits="userSpaceOnUse" gradientTransform="matrix(-2.26034,62.977,-62.977,-2.26034,1905.5,1647.38)"><stop offset="0" style="stop-color:rgb(0,7,64);stop-opacity:0"/><stop offset="1" style="stop-color:rgb(0,7,64);stop-opacity:1"/></linearGradient><linearGradient id="_Linear22" x1="0" y1="0" x2="1" y2="0" gradientUnits="userSpaceOnUse" gradientTransform="matrix(-1.74844,200.739,-200.739,-1.74844,2197.62,1167.77)"><stop offset="0" style="stop-color:black;stop-opacity:0"/><stop offset="1" style="stop-color:black;stop-opacity:1"/></linearGradient><linearGradient id="_Linear23" x1="0" y1="0" x2="1" y2="0" gradientUnits="userSpaceOnUse" gradientTransform="matrix(70.9875,0,0,70.9875,1662.48,1359.41)"><stop offset="0" style="stop-color:rgb(0,7,64);stop-opacity:0"/><stop offset="1" style="stop-color:rgb(0,7,64);stop-opacity:1"/></linearGradient><linearGradient id="_Linear24" x1="0" y1="0" x2="1" y2="0" gradientUnits="userSpaceOnUse" gradientTransform="matrix(20.1427,0,0,20.1427,1720.04,1605.06)"><stop offset="0" style="stop-color:rgb(0,7,64);stop-opacity:0"/><stop offset="1" style="stop-color:rgb(0,7,64);stop-opacity:1"/></linearGradient><linearGradient id="_Linear25" x1="0" y1="0" x2="1" y2="0" gradientUnits="userSpaceOnUse" gradientTransform="matrix(-159.855,188.03,-188.03,-159.855,1706.29,1163.01)"><stop offset="0" style="stop-color:rgb(0,7,64);stop-opacity:0"/><stop offset="1" style="stop-color:rgb(0,7,64);stop-opacity:1"/></linearGradient><linearGradient id="_Linear26" x1="0" y1="0" x2="1" y2="0" gradientUnits="userSpaceOnUse" gradientTransform="matrix(7.27035,379.936,338.303,-8.16507,754.016,680.877)"><stop offset="0" style="stop-color:rgb(114,124,245);stop-opacity:1"/><stop offset="1" style="stop-color:rgb(0,18,236);stop-opacity:1"/></linearGradient><linearGradient id="_Linear27" x1="0" y1="0" x2="1" y2="0" gradientUnits="userSpaceOnUse" gradientTransform="matrix(7.27035,548.502,338.303,-11.7877,637.423,585.681)"><stop offset="0" style="stop-color:rgb(114,124,245);stop-opacity:1"/><stop offset="1" style="stop-color:rgb(0,18,236);stop-opacity:1"/></linearGradient><linearGradient id="_Linear28" x1="0" y1="0" x2="1" y2="0" gradientUnits="userSpaceOnUse" gradientTransform="matrix(7.27035,861.112,338.303,-18.5058,520.829,409.135)"><stop offset="0" style="stop-color:rgb(114,124,245);stop-opacity:1"/><stop offset="1" style="stop-color:rgb(0,18,236);stop-opacity:1"/></linearGradient><linearGradient id="_Linear29" x1="0" y1="0" x2="1" y2="0" gradientUnits="userSpaceOnUse" gradientTransform="matrix(7.27035,522.457,338.303,-11.2279,404.236,600.389)"><stop offset="0" style="stop-color:rgb(114,124,245);stop-opacity:1"/><stop offset="1" style="stop-color:rgb(0,18,236);stop-opacity:1"/></linearGradient><linearGradient id="_Linear30" x1="0" y1="0" x2="1" y2="0" gradientUnits="userSpaceOnUse" gradientTransform="matrix(7.27035,999.131,338.303,-21.4719,287.642,331.192)"><stop offset="0" style="stop-color:rgb(114,124,245);stop-opacity:1"/><stop offset="1" style="stop-color:rgb(0,18,236);stop-opacity:1"/></linearGradient></defs></svg>